<?xml version="1.0" encoding="utf-8"?>
<!-- Generator: Adobe Illustrator 17.1.0, SVG Export Plug-In . SVG Version: 6.00 Build 0)  -->
<!DOCTYPE svg PUBLIC "-//W3C//DTD SVG 1.1//EN" "http://www.w3.org/Graphics/SVG/1.1/DTD/svg11.dtd">
<svg version="1.1" id="Capa_1" xmlns="http://www.w3.org/2000/svg" xmlns:xlink="http://www.w3.org/1999/xlink" x="0px" y="0px"
	 viewBox="47.5 -635.2 6276.1 1339.2" enable-background="new 47.5 -635.2 6276.1 1339.2" xml:space="preserve">
<g id="utDLG8.tif">
	<g>
		<path fill="#524640" d="M1564,37.6c0,56.4-0.1,112.7,0,169.1c0.1,53.9-22.8,94-69.8,121c-205.6,118.3-411,237-616.5,355.5
			c-46.3,26.7-93.3,28.3-139.9,1.6C531,566.3,324.2,447.6,117.7,328.5c-46.2-26.6-70.3-67.2-70.2-121.2
			C47.6,93.3,47.7-20.6,48-134.5c0.2-57.7,25-99.6,76.1-128.7C327.1-379,529.5-495.7,731.5-613c50.7-29.4,98.6-29.7,149.2-0.4
			c202.1,117.2,404.4,234,607.3,349.7c52.3,29.9,77.1,72.5,76.2,132.1C1563.4-75.1,1564.1-18.7,1564,37.6z M1487.3,37.1
			c0-52.7-1.7-105.5,0.6-158.2c1.4-33.3-12.1-53.5-39.9-69.4c-201.5-115.4-402.8-231.3-603.8-347.7c-25.6-14.8-48-15.8-73.8-0.8
			C567.5-421.2,364.2-304,160.8-187c-24.3,13.9-35.8,32.1-35.6,60.9c0.9,109.1,0.9,218.1-0.4,327.2c-0.4,30.3,12.1,49.2,37.3,63.7
			c203.4,116.9,406.8,234.1,609.8,351.7c23.2,13.4,44,14.2,67.3,0.7c205.1-118.8,410.4-237.3,615.9-355.5
			c23.4-13.5,32.9-32.2,32.4-59C1486.5,147.4,1487.3,92.3,1487.3,37.1z"/>
		<path fill="#524640" d="M4960.4,73c45.4-84.1,87.3-163.2,130.9-241.3c9-16.2,24.6-28.7,37.2-42.9c7.2,17.2,17.9,33.8,21.1,51.7
			c21.6,120.1,41.6,240.5,61.9,360.9c2,11.6,2.6,23.5,4.6,41.4c-29.8,0-56.9,1.8-83.5-1.2c-7.1-0.8-16.5-15.3-18.1-24.6
			c-9.7-56.3-17.4-112.9-33.7-171.9c-11.1,21.2-22.3,42.4-33.4,63.6c-21,40.3-41.5,80.9-63.5,120.7c-4.6,8.3-15.4,19.7-21.8,18.8
			c-9.4-1.2-20.6-10.6-25.5-19.6c-33-60.8-64.6-122.4-102.1-194.2c-8,52-14.2,93.3-20.8,134.6c-13.1,82.1-20.6,87.1-109.6,68.5
			c6.9-41.6,13.8-83.5,20.8-125.4c16.3-96.8,32.3-193.6,49.7-290.1c2.1-11.8,12.2-22.2,18.6-33.3c9.6,9.2,22.3,16.6,28.4,27.7
			C4867.3-100.9,4911.7-17.5,4960.4,73z"/>
		<path fill="#524640" d="M2683.6,18.4c0.7,129-100.1,230.8-229.1,231.3c-130,0.5-232.1-99.2-233.2-227.7
			c-1.2-130.1,101.3-233.5,231.5-233.5C2581.4-211.6,2682.9-110.5,2683.6,18.4z M2581.1,19.5c0-70.2-57.3-128.7-127.1-129.6
			c-70.1-0.9-131.2,60.3-130.3,130.8c0.9,69.6,60.1,127.9,129.6,127.5C2523.4,147.8,2581.1,89.6,2581.1,19.5z"/>
		<path fill="#524640" d="M2762.2,15.7c0-62.2,1.1-124.5-0.5-186.7c-0.7-27,8.8-35.7,35.3-34.7c47.8,1.8,95.8-0.4,143.6,1
			c121.4,3.6,216.1,102,216.2,223.3c0.1,121.4-94.6,220.3-215.6,224c-49,1.5-98.2-0.7-147.2,1c-26.2,0.9-32.6-10-32.1-34
			C2762.9,145,2762.2,80.4,2762.2,15.7z M2863.8,147.3c69,5.7,132.9,5.9,169.6-61.9c27.2-50.4,24.9-102.1-9.6-148.7
			c-40.8-55.1-99.3-51.8-159.9-45.5C2863.8-22.6,2863.8,60.6,2863.8,147.3z"/>
		<path fill="#524640" d="M3338.2-111.5c0,29.2,0,52.7,0,80.3c42.1,0,82.6,1.5,122.9-0.5c26.8-1.4,35.6,7.3,34.7,34.4
			c-2.3,70.3,6.2,58.6-59.2,59.5c-32,0.5-64.1,0.1-98.1,0.1c0,29.6,0,55.4,0,87.2c49.5,0,99.4,2.6,148.9-0.8
			c39.3-2.7,42.2,16.6,41.8,47.3c-0.4,29.1,0.4,50.1-40.4,48.2c-72.9-3.4-146.1-1.7-219.2-0.5c-24.2,0.4-33.8-6.2-33.6-32.2
			c1.1-128.2,1.1-256.4,0-384.5c-0.2-25.8,9.1-32.8,33.5-32.4c75.5,1.1,150.9,1.3,226.4-0.1c25.4-0.4,35.2,8.6,32.8,33.3
			c-1,10.7-0.8,21.6-0.1,32.3c1.5,22-8.8,29.3-30.1,28.9C3445.9-112.1,3393.4-111.5,3338.2-111.5z"/>
		<path fill="#524640" d="M6133.3-111.5c0,29,0,52.5,0,79.6c51.7,0,101.4,0,154.6,0c0,32.5,0,61.5,0,94c-52.2,0-102,0-154.2,0
			c0,30.4,0,57.3,0,87.3c52.4,0,102.6,1.5,152.7-0.6c28.5-1.1,40.4,8.2,36.2,36.8c-1,7-1.1,14.5,0,21.5c4.5,28.7-7.6,37.2-35.9,36.5
			c-73.1-1.7-146.2-1.5-219.3-0.1c-25.7,0.5-36.1-6-35.8-33.8c1.2-127,1.2-254,0-381.1c-0.3-27.1,8.7-35,35.2-34.5
			c73.1,1.5,146.2,1.5,219.3,0c27.4-0.6,41.5,6.4,36.4,35.9c-0.2,1.2,0,2.4,0,3.6c0.3,54.7,0.3,54.7-53.2,54.7
			C6225-111.5,6180.7-111.5,6133.3-111.5z"/>
		<path fill="#524640" d="M2182.8-141.9c-8.2,9.3-15.7,16.9-22.2,25.3c-21.5,27.9-39.7,42.2-78.3,16.3
			c-49.4-33.1-114.2-15.7-152.1,29.3c-39.9,47.2-42.6,116.1-6.6,166.5c34.6,48.4,96.5,65.7,153.5,41.9c14.2-5.9,27.3-14.6,44.4-23.9
			c9.2,8.6,19.7,17.7,29.3,27.7c39.4,41.1,38.3,47.2-12.2,77.3c-81.9,48.9-189.8,40.4-265.6-20.8c-73.4-59.3-102.1-162-70.9-253.2
			c32-93.3,116.6-154.8,214.9-156.1C2088.6-212.5,2142.3-190.7,2182.8-141.9z"/>
		<path fill="#524640" d="M4053.5,115c3,0.6,4.6,0.4,5.2,1.1c18.5,22.3,36.8,44.7,55.2,67.1c-24,17-45.9,38.9-72.3,50.1
			c-99.6,42.4-220.3,3.7-279.1-86.1c-60.7-92.6-47.4-216.8,31.4-293.5c78-76,203.8-88,291.3-27.9c37.3,25.6,36.3,27.9,7.3,61.6
			c-22.2,25.8-38.7,35.6-73.2,13c-50.7-33.3-117.6-16.4-155.3,29.9c-40.2,49.3-41,120.1-2.1,169.8c36.4,46.5,99.4,60.8,155.7,34.9
			C4030.3,129,4042.4,121.2,4053.5,115z"/>
		<path fill="#524640" d="M5676.1,242.8c-32.9,0-59.6,3.1-84.9-1.4c-11.5-2.1-25.4-17.5-29.5-29.8c-9.9-29.2-27.5-37.8-56.5-35
			c-23.8,2.3-48,2-71.9,0.1c-40.4-3.1-76.3-2.2-87.2,48.5c-1.6,7.2-15.2,16.1-23.9,16.8c-25.8,2.2-51.9,0.8-83.7,0.8
			c5.9-16.8,8.7-28,13.5-38.3c59.9-129.3,119.9-258.5,180.7-387.4c5.1-10.8,15.6-19,23.6-28.5c8.2,9,19.3,16.7,24.3,27.3
			c61.8,131,122.8,262.4,183.9,393.8C5668.3,218.3,5670.6,227.3,5676.1,242.8z M5505.7,89c-16.5-35.6-31.2-67.5-49.4-106.6
			c-18,40.7-32,72.5-47.1,106.6C5443.3,89,5471.5,89,5505.7,89z"/>
		<path fill="#524640" d="M5761.4-111.5c-28.9,0-52.8-1-76.5,0.3c-22.2,1.2-30.4-8.6-29.2-29.7c0.8-14.3-1.9-29.2,1.1-42.9
			c1.8-8,11.7-20.2,18.1-20.2c95.5-1.3,191.1-0.9,291.3-0.9c0,27.3,1.9,51.2-1.1,74.4c-0.9,7.2-14.7,17.3-23.4,18.2
			c-24.7,2.5-49.8,0.9-79.6,0.9c0,18.9,0,35.2,0,51.5c0,89.8-1,179.6,0.6,269.4c0.5,27.4-8.7,35.1-35,34.3
			c-79.9-2.5-65.3,8.9-66-66.8C5760.7,82.4,5761.4-12,5761.4-111.5z"/>
		<path fill="#524640" d="M4292.1,149.5c46.9,0,88.7,1.2,130.4-0.4c25.8-1,38.8,6.5,35.7,34.2c-1.3,11.8,2.7,25-1.2,35.6
			c-3.5,9.5-14.2,23-22.1,23.2c-74.2,1.7-148.5,1.6-222.6,0c-7-0.1-19.7-13.7-19.8-21.1c-1.2-134.1-1.3-268.2,0.1-402.3
			c0.1-8,13.4-21.8,21.9-22.8c77.6-9.5,77.6-8.9,77.6,69C4292.1-41.9,4292.1,51.3,4292.1,149.5z"/>
		<path fill="#524640" d="M4622.2,19c0,62.4-1.1,124.8,0.5,187.1c0.7,27.2-6.3,38.8-36.1,37.7c-75.7-2.8-65.3,8.9-65.7-64.6
			c-0.6-115.1,0.6-230.3-0.7-345.4c-0.3-28.5,6.1-40.8,37.6-39.5c72,2.9,63.8-8.1,64.2,62.9C4622.5-89,4622.2-35,4622.2,19z"/>
		<path fill="#524640" d="M947.9,151.3c-30.8,29.5-65.1,62.4-101.9,97.8c-63.4-64.8-129.4-132.3-200-204.4
			c-70,72.8-136,141.5-201.4,209.6c-39.3-38.7-73.2-72.1-105.7-104.2C441.3,47.6,543.6-54.7,644.1-155.2
			C743.8-54.6,845.6,48.1,947.9,151.3z"/>
		<path fill="#524640" d="M1269.8,43.1c-33.4,33.8-66.1,66.9-100.6,101.7C1102.4,77.1,1035.5,9.4,962.3-64.7
			c-24.1,31.2-43.8,56.7-63,81.5c-39.7-41.1-72.7-75.3-102.8-106.3c54.5-55.5,112.7-114.8,168.2-171.3
			C1064.4-161.6,1166.8-59.5,1269.8,43.1z"/>
	</g>
</g>
</svg>
