<?xml version="1.0" encoding="utf-8"?>
<!-- Generator: Adobe Illustrator 17.1.0, SVG Export Plug-In . SVG Version: 6.00 Build 0)  -->
<!DOCTYPE svg PUBLIC "-//W3C//DTD SVG 1.1//EN" "http://www.w3.org/Graphics/SVG/1.1/DTD/svg11.dtd">
<svg version="1.1" id="Capa_1" xmlns="http://www.w3.org/2000/svg" xmlns:xlink="http://www.w3.org/1999/xlink" x="0px" y="0px"
	 viewBox="598.4 818.7 5691.5 1178.2" enable-background="new 598.4 818.7 5691.5 1178.2" xml:space="preserve">
<g>
	<g>
		<circle fill="#524640" cx="1043.9" cy="968.2" r="149.5"/>
		<path fill="#524640" d="M1046.8,1996.9L1046.8,1996.9c-73.3,0-129-55.7-129-126v-577.4c0-70.3,55.7-126,126-126h2.9
			c70.3,0,126,55.7,126,126v577.4C1172.8,1941.2,1117.1,1996.9,1046.8,1996.9z"/>
		<polygon fill="#524640" points="1427.8,1316.9 1427.8,1267.1 1372.1,1267.1 1372.1,1217.3 1322.3,1217.3 1322.3,1167.5 
			1216.8,1167.5 1216.8,1217.3 1266.6,1217.3 1266.6,1267.1 1319.4,1267.1 1319.4,1316.9 1372.1,1316.9 1372.1,1366.8 
			1319.4,1366.8 1319.4,1416.6 1266.6,1416.6 1266.6,1466.4 1216.8,1466.4 1216.8,1516.2 1322.3,1516.2 1322.3,1466.4 
			1372.1,1466.4 1372.1,1416.6 1427.8,1416.6 1427.8,1366.8 1480.6,1366.8 1480.6,1316.9 		"/>
		<polygon fill="#524640" points="651.1,1366.8 651.1,1416.6 703.9,1416.6 703.9,1466.4 756.7,1466.4 756.7,1516.2 862.2,1516.2 
			862.2,1466.4 812.3,1466.4 812.3,1416.6 759.6,1416.6 759.6,1366.8 703.9,1366.8 703.9,1316.9 759.6,1316.9 759.6,1267.1 
			812.3,1267.1 812.3,1217.3 862.2,1217.3 862.2,1167.5 756.7,1167.5 756.7,1217.3 703.9,1217.3 703.9,1267.1 651.1,1267.1 
			651.1,1316.9 598.4,1316.9 598.4,1366.8 		"/>
		<g>
			<path fill="#524640" d="M1855.7,1571.9h234.5c11.7,0,23.4,8.8,23.4,23.4l0,0c0,11.7-8.8,23.4-23.4,23.4h-234.5v175.8h266.7
				c11.7,0,23.4,8.8,23.4,23.4l0,0c0,11.7-8.8,23.4-23.4,23.4h-293.1c-11.7,0-20.5-8.8-20.5-20.5v-448.4c0-11.7,8.8-20.5,20.5-20.5
				h293.1c11.7,0,23.4,8.8,23.4,23.4l0,0c0,11.7-8.8,23.4-23.4,23.4h-266.7V1571.9z"/>
			<path fill="#524640" d="M3968.8,1571.9h234.5c11.7,0,23.4,8.8,23.4,23.4l0,0c0,11.7-8.8,23.4-23.4,23.4h-234.5v175.8h266.7
				c11.7,0,23.4,8.8,23.4,23.4l0,0c0,11.7-8.8,23.4-23.4,23.4h-293.1c-11.7,0-20.5-8.8-20.5-20.5v-448.4c0-11.7,8.8-20.5,20.5-20.5
				h293.1c11.7,0,23.4,8.8,23.4,23.4l0,0c0,11.7-8.8,23.4-23.4,23.4h-266.7V1571.9z"/>
			<path fill="#524640" d="M2298.2,1818.1v-422c0-23.4,20.5-44,44-44l0,0c14.7,0,29.3,8.8,38.1,20.5l149.5,257.9l149.5-257.9
				c8.8-11.7,23.4-20.5,38.1-20.5l0,0c23.4,0,44,20.5,44,44v422c0,11.7-8.8,23.4-23.4,23.4l0,0c-11.7,0-23.4-8.8-23.4-23.4v-386.9
				c0-8.8-8.8-11.7-14.7-2.9L2562,1665.7c-5.9,11.7-20.5,17.6-32.2,17.6l0,0c-11.7,0-26.4-5.9-32.2-17.6l-140.7-237.4
				c-2.9-5.9-14.7-2.9-14.7,2.9v386.9c0,11.7-8.8,23.4-23.4,23.4l0,0C2310,1841.6,2298.2,1829.8,2298.2,1818.1z"/>
			<path fill="#524640" d="M2943,1366.8c0-8.8,5.9-14.7,14.7-14.7h167.1c29.3,0,52.8,2.9,70.3,5.9c17.6,2.9,32.2,8.8,44,14.7
				c20.5,11.7,38.1,29.3,46.9,49.8c11.7,20.5,17.6,44,17.6,67.4c0,23.4-5.9,70.3-14.7,90.9c-8.8,20.5-23.4,35.2-41,46.9
				c-11.7,8.8-26.4,14.7-44,17.6c-17.6,2.9-41,5.9-67.4,5.9h-143.6v167.1c0,11.7-11.7,23.4-23.4,23.4l0,0
				c-11.7,0-23.4-8.8-23.4-26.4v-448.4H2943z M2989.9,1399v205.2h152.4c38.1,0,67.4-5.9,85-20.5c17.6-14.7,26.4-61.5,26.4-90.9
				c0-32.2-8.8-55.7-26.4-70.3c-17.6-14.7-46.9-20.5-87.9-20.5h-149.5V1399z"/>
			<path fill="#524640" d="M3760.7,1841.6h-296c-11.7,0-20.5-8.8-20.5-20.5v-454.3c0-11.7,8.8-23.4,23.4-23.4l0,0
				c11.7,0,23.4,8.8,23.4,23.4v427.9h266.7c11.7,0,23.4,8.8,23.4,23.4l0,0C3781.2,1829.8,3772.4,1841.6,3760.7,1841.6z"/>
			<path fill="#524640" d="M4399.6,1592.4c0-35.2,5.9-67.4,20.5-99.6c14.7-32.2,32.2-58.6,58.6-85c23.4-23.4,49.8-41,79.1-52.8
				c29.3-11.7,61.5-17.6,93.8-17.6c35.2,0,67.4,5.9,96.7,17.6c29.3,11.7,55.7,29.3,82.1,52.8c26.4,23.4,44,52.8,55.7,82.1
				c11.7,29.3,17.6,64.5,17.6,99.6c0,35.2-5.9,67.4-17.6,96.7c-11.7,29.3-26.4,55.7-49.8,79.1c-26.4,26.4-52.8,49.8-85,61.5
				c-32.2,14.7-67.4,20.5-102.6,20.5c-70.3,0-131.9-26.4-178.8-76.2C4423,1727.3,4399.6,1665.7,4399.6,1592.4z M4449.4,1595.4
				c0,61.5,20.5,111.4,58.6,152.4s87.9,61.5,143.6,61.5c55.7,0,102.6-20.5,140.7-61.5s58.6-90.9,58.6-152.4
				c0-55.7-20.5-105.5-58.6-143.6c-41-41-87.9-61.5-143.6-61.5c-23.4,0-44,2.9-67.4,11.7c-20.5,8.8-41,20.5-58.6,35.2
				c-23.4,20.5-41,44-55.7,73.3C4455.3,1533.8,4449.4,1563.1,4449.4,1595.4z"/>
			<path fill="#524640" d="M5073.7,1736c5.9,11.7,14.7,23.4,26.4,32.2c52.8,46.9,164.1,35.2,211,0c23.4-17.6,35.2-41,35.2-70.3
				c-2.9-55.7-61.5-76.2-155.3-96.7c-5.9-2.9-11.7-2.9-17.6-2.9c-49.8-11.7-82.1-26.4-105.5-44c-20.5-17.6-32.2-41-32.2-70.3
				c0-38.1,17.6-67.4,49.8-93.8c32.2-23.4,76.2-35.2,126-35.2c90.9,0,131.9,41,146.5,55.7c20.5,26.4-5.9,52.8-26.4,32.2
				c-35.2-44-134.8-76.2-213.9-20.5c-20.5,14.7-32.2,35.2-32.2,58.6c0,11.7,2.9,23.4,8.8,32.2c5.9,8.8,14.7,17.6,29.3,23.4
				c64.5,29.3,149.5,44,205.2,73.3c73.3,44,61.5,111.4,55.7,123.1c-8.8,26.4-23.4,49.8-46.9,67.4c-35.2,29.3-82.1,41-137.7,41
				c-52.8,0-96.7-14.7-131.9-41c-17.6-14.7-29.3-29.3-38.1-46.9C5012.1,1721.4,5067.8,1709.7,5073.7,1736z"/>
			<path fill="#524640" d="M2937.1,1835.7"/>
			<rect x="5542.6" y="1346.3" fill="#524640" width="504.1" height="123.1"/>
			<rect x="5733.1" y="1469.3" fill="#524640" width="123.1" height="375.1"/>
			<rect x="6166.9" y="1346.3" fill="#524640" width="123.1" height="495.3"/>
		</g>
	</g>
</g>
</svg>
