<?xml version="1.0" encoding="utf-8"?>
<!-- Generator: Adobe Illustrator 17.1.0, SVG Export Plug-In . SVG Version: 6.00 Build 0)  -->
<!DOCTYPE svg PUBLIC "-//W3C//DTD SVG 1.1//EN" "http://www.w3.org/Graphics/SVG/1.1/DTD/svg11.dtd">
<svg version="1.1" id="Capa_1" xmlns="http://www.w3.org/2000/svg" xmlns:xlink="http://www.w3.org/1999/xlink" x="0px" y="0px"
	 viewBox="43 2932 5566.2 1145.9" enable-background="new 43 2932 5566.2 1145.9" xml:space="preserve">
<g>
	<g>
		<polygon fill="#524640" points="43,3127.8 444.5,3127.8 444.5,3254.6 187.2,3254.6 187.2,3417.1 439.7,3417.1 439.7,3543.9 
			187.2,3543.9 187.2,3717 444.5,3717 444.5,3843.8 43,3843.8 		"/>
		<g>
			<path fill="#524640" d="M534.5,3312.6h119c0,23.2,0,45.5-1,70.6c23.2-41.6,70.6-88,165.4-87.1c173.2,1,206.1,133.5,206.1,227.4
				v320.2H897.3v-288.3c0-79.3-26.1-140.3-115.1-140.3c-90,1-120.9,61-120.9,135.4v293.2H534.5V3312.6z"/>
			<path fill="#524640" d="M1671.3,3780.9c0,87.1-16.5,143.2-49.4,187.7c-45.4,60.9-134.5,109.3-243.8,109.3
				c-165.4,0-244.8-98.7-264.1-180.9h147.1c11.6,24.2,31.9,42.6,55.1,54.2c26.1,14.5,54.2,18.4,69.7,18.4
				c75.5,0,157.7-52.2,157.7-159.7v-44.5c-26.1,47.4-82.2,94.8-172.2,94.8c-152.9,0-270.9-116.1-270.9-279.6
				c0-173.2,123.9-283.5,270.9-283.5c76.4,0,142.2,34.8,172.2,87.1v-71.6h127.7V3780.9z M1227.2,3577.7
				c0,92.9,66.8,163.5,158.7,163.5c47.4,0,85.2-16.5,113.2-45.5c28.1-28.1,44.5-67.7,45.5-113.2c0-40.6-12.6-83.2-38.7-114.2
				c-25.1-31.9-64.8-53.2-120-53.2c-86.1,0-158.7,66.8-158.7,161.6V3577.7z"/>
			<rect x="1774.8" y="3312.6" fill="#524640" width="126.7" height="531.1"/>
			<path fill="#524640" d="M2007.1,3312.6h119c0,23.2,0,45.5-1,70.6c23.2-41.6,70.6-88,165.4-87.1c173.2,1,206.1,133.5,206.1,227.4
				v320.2h-126.7v-288.3c0-79.3-26.1-140.3-115.1-140.3c-90,1-121,61-121,135.4v293.2h-126.7V3312.6z"/>
			<path fill="#524640" d="M2675.6,3620.3c5.8,85.1,81.3,132.6,153.8,131.6c61.9,0,103.5-28.1,127.7-71.6h130.6
				c-25.1,59-62.9,103.5-107.4,133.5c-44.5,31-96.7,46.4-151.9,46.4c-163.5,0-280.6-132.5-280.6-280.6
				c0-150.9,118-283.5,278.6-283.5c79.3,0,149,30,198.3,81.3c64.8,66.8,89,150,78.4,242.8H2675.6z M2978.4,3523.5
				c-4.8-50.3-58.1-120.9-150.9-120c-93.9,0-145.1,67.7-150,120H2978.4z"/>
			<polygon fill="#524640" points="3581.2,3587.4 3361.5,3127.8 3517.3,3127.8 3652.8,3452.9 3789.2,3127.8 3944,3127.8 
				3725.3,3587.4 3725.3,3843.8 3581.2,3843.8 			"/>
			<path fill="#524640" d="M4449,3843.8h-126.7v-76.4c-33.9,61.9-104.5,92.9-179,92.9c-170.3,0-269.9-132.5-269.9-282.5
				c0-167.4,120.9-281.5,269.9-281.5c96.8,0,155.8,51.3,179,93.9v-77.4H4449V3843.8z M4000.1,3580.6c0,65.8,47.4,161.6,161.6,161.6
				c70.6,0,117.1-36.8,141.3-85.2c12.6-23.2,18.4-48.4,20.3-74.5c0.9-25.2-3.9-51.3-14.5-74.5c-22.2-50.3-71.6-93.8-148-93.8
				c-102.6,0-160.6,83.2-160.6,165.4V3580.6z"/>
			<path fill="#524640" d="M4554.5,3312.6h120v69.7c23.2-47.4,66.8-85.1,147.1-86.1v127.7h-5.8c-89,0-134.5,41.6-134.5,133.5v286.4
				h-126.8V3312.6z"/>
			<path fill="#524640" d="M5397.2,3843.8h-120.9v-76.4c-23.2,39.7-73.5,92.9-181.9,92.9c-163.5,0-269-127.7-269-282.5
				c0-172.2,122.9-281.5,267-281.5c101.6,0,158.7,54.2,178,85.1v-77.4v-176.1h126.7V3843.8z M4952.1,3577.7
				c0,90,64.8,163.5,162.5,163.5c46.5,0,88.1-18.4,118-48.4c30-30,47.4-71.6,45.5-118c0-46.4-18.4-86.1-47.4-114.1
				c-29-29-69.6-46.4-115.1-46.4c-103.5,0-163.5,79.3-163.5,162.5V3577.7z"/>
			<path fill="#524640" d="M1644.9,3140.5h116.2l97.5,96.9v-183.3c0-39.5-32.1-71.5-71.5-71.5c-17.1,0-32.7,6-45,15.9
				c-15.1-38.9-52.8-66.5-97.1-66.5c-57.6,0-104.2,46.6-104.2,104.2C1540.7,3093.8,1587.4,3140.5,1644.9,3140.5"/>
			<path fill="#524640" d="M5470.3,3143.5H5452v-15.7h55.2v15.7H5489v66.3h-18.7V3143.5z M5518.1,3127.8h23.8l22,56.9l21.6-56.9
				h23.6v82h-17.6v-60.4l-21.8,60.4h-12.4l-21.8-60v60h-17.6V3127.8z"/>
		</g>
	</g>
</g>
</svg>
