<?xml version="1.0" encoding="utf-8"?>
<!-- Generator: Adobe Illustrator 17.0.0, SVG Export Plug-In . SVG Version: 6.00 Build 0)  -->
<!DOCTYPE svg PUBLIC "-//W3C//DTD SVG 1.1//EN" "http://www.w3.org/Graphics/SVG/1.1/DTD/svg11.dtd">
<svg version="1.1" id="Capa_1" xmlns="http://www.w3.org/2000/svg" xmlns:xlink="http://www.w3.org/1999/xlink" x="0px" y="0px"
	 width="75.832px" height="66.641px" viewBox="0 0 75.832 66.641" enable-background="new 0 0 75.832 66.641" xml:space="preserve">
<g>
	<path opacity="0.3" fill="#524640" enable-background="new    " d="M32.099,59.313c0.21,0.481,0.331,1.055,0.331,1.741v5.307
		c0.375,0.039,0.754,0.074,1.136,0.103v-3.407C33.566,63.059,33.476,60.377,32.099,59.313z"/>
	<path opacity="0.3" fill="#524640" enable-background="new    " d="M59.499,59.193c0-4.114-9.527-7.45-21.284-7.45
		c-11.754,0-21.284,3.336-21.284,7.45c0,2.935,4.855,5.475,11.908,6.69v-4.734c0,0-0.186-2.271-2.267-3.026
		c0,0-1.229-0.852,0.092-1.326c0,0,3.817-0.316,5.243,2.114c-0.147-0.47-0.168-1.198,1.283-0.869c0,0,3.973,0.566,4.161,5.201
		l0.035,3.391c0.276,0.005,0.552,0.005,0.828,0.005c0.079,0,0.158,0,0.234,0l0.036-3.395c0.19-4.636,4.161-5.201,4.161-5.201
		c1.455-0.329,1.431,0.401,1.283,0.869c1.427-2.427,5.243-2.114,5.243-2.114c1.326,0.474,0.092,1.326,0.092,1.326
		c-2.078,0.755-2.267,3.026-2.267,3.026v4.831C54.371,64.811,59.499,62.208,59.499,59.193z"/>
	<path opacity="0.3" fill="#524640" enable-background="new    " d="M42.269,63.059v3.447c0.382-0.026,0.762-0.056,1.134-0.089
		v-5.363c0-0.686,0.125-1.262,0.331-1.742C42.364,60.377,42.269,63.059,42.269,63.059z"/>
	<path fill="#524640" d="M43.785,59.274c0,0,0.085-0.155,0.145-0.359c-0.073,0.125-0.135,0.259-0.193,0.399
		C43.751,59.299,43.765,59.286,43.785,59.274z"/>
	<path opacity="0.5" fill="#524640" enable-background="new    " d="M42.269,63.059c0,0,0.094-2.683,1.468-3.747
		c0.059-0.138,0.122-0.274,0.193-0.397c0.147-0.47,0.171-1.201-1.283-0.872c0,0-3.971,0.569-4.159,5.204l-0.036,3.394
		c1.305-0.005,2.581-0.051,3.818-0.135L42.269,63.059L42.269,63.059z"/>
	<path opacity="0.5" fill="#524640" enable-background="new    " d="M32.433,61.055c0-0.686-0.124-1.262-0.331-1.742
		c-0.017-0.013-0.03-0.027-0.048-0.038c0,0-0.085-0.155-0.148-0.359c-1.427-2.429-5.243-2.114-5.243-2.114
		c-1.323,0.47-0.092,1.323-0.092,1.323c2.081,0.754,2.267,3.029,2.267,3.029v4.732c1.146,0.195,2.348,0.358,3.594,0.479v-5.311
		H32.433z"/>
	<path opacity="0.5" fill="#524640" enable-background="new    " d="M49.267,58.124c0,0,1.229-0.85-0.094-1.323
		c0,0-3.817-0.318-5.243,2.114c-0.062,0.204-0.148,0.359-0.148,0.359c-0.016,0.012-0.03,0.026-0.048,0.038
		c-0.208,0.481-0.329,1.056-0.329,1.742v5.363c1.246-0.107,2.448-0.255,3.594-0.436v-4.833
		C46.999,61.149,47.187,58.88,49.267,58.124z"/>
	<path fill="#524640" d="M32.099,59.313c-0.057-0.139-0.121-0.274-0.193-0.399c0.062,0.204,0.148,0.359,0.148,0.359
		C32.071,59.286,32.085,59.299,32.099,59.313z"/>
	<path opacity="0.5" fill="#524640" enable-background="new    " d="M33.566,63.059v3.404c1.236,0.096,2.515,0.158,3.82,0.174
		l-0.035-3.391c-0.188-4.636-4.161-5.201-4.161-5.201c-1.452-0.329-1.43,0.399-1.283,0.87c0.073,0.124,0.135,0.258,0.193,0.399
		C33.476,60.377,33.566,63.059,33.566,63.059z"/>
	<path opacity="0.25" fill="#524640" enable-background="new    " d="M13.905,37.29l-0.619,2.142c0,0-0.162,0.774,0.57,0.91
		c0.759-0.017,0.697-0.727,0.646-0.957L13.905,37.29L13.905,37.29z"/>
	<path fill="#524640" d="M75.776,28.315l0.056-0.277c-6.243-1.248-12.652-1.259-16.528-1.1c0.637-2.295,0.827-4.934,0.827-7.879
		c0-4.223-1.585-7.601-4.159-10.168c0.449-1.453,1.051-4.679-0.602-8.81c0,0-2.912-0.925-9.503,3.487
		c-2.581-0.646-5.331-0.964-8.083-0.964c-3.028,0-6.084,0.384-8.939,1.168c-6.799-4.64-9.803-3.689-9.803-3.689
		c-1.959,4.9-0.746,8.529-0.378,9.43c-2.304,2.485-3.71,5.658-3.71,9.548c0,2.937,0.335,5.571,1.151,7.862
		C12.196,26.782,6.02,26.834,0,28.039l0.055,0.277c6.058-1.21,12.271-1.254,16.156-1.107c0.181,0.477,0.38,0.935,0.606,1.38
		c-3.84,0.125-10.404,0.615-16.689,2.388l0.077,0.272c6.338-1.787,12.954-2.266,16.761-2.381c2.293,4.279,6.821,7.043,14.872,7.91
		c-1.141,0.767-2.308,2.073-2.779,4.281c-1.559,0.747-6.489,2.564-9.447-2.524c0,0-1.655-3.029-4.827-3.266
		c0,0-3.075-0.047-0.211,1.918c0,0,2.056,0.97,3.476,4.613c0,0,1.852,6.212,10.787,4.218v6.416c0,0-0.19,2.272-2.271,3.029
		c0,0-1.229,0.852,0.094,1.323c0,0,5.77,0.474,5.77-4.255v-6.998c0,0-0.228-2.778,1.133-3.74v11.494c0,0-0.092,2.743-1.513,3.786
		c0,0-0.947,1.699,1.136,1.229c0,0,3.972-0.57,4.161-5.204l0.09-11.633h0.957L38.483,53.1c0.188,4.635,4.157,5.204,4.157,5.204
		c2.084,0.469,1.134-1.229,1.134-1.229c-1.418-1.042-1.513-3.786-1.513-3.786V41.894c1.362,1.061,1.134,3.641,1.134,3.641v6.998
		c0,4.729,5.77,4.255,5.77,4.255c1.326-0.47,0.094-1.323,0.094-1.323c-2.082-0.757-2.27-3.029-2.27-3.029v-9.174
		c0-3.577-1.508-5.472-2.98-6.471c8.585-0.849,12.707-3.627,14.605-7.935c3.762,0.105,10.531,0.561,17.006,2.388l0.076-0.272
		c-6.438-1.817-13.163-2.287-16.959-2.397c0.178-0.434,0.337-0.886,0.475-1.353C63.072,27.061,69.508,27.064,75.776,28.315z
		 M15.545,36.452c-0.339,0-0.615-0.188-0.615-0.423s0.275-0.426,0.615-0.426c0.341,0,0.616,0.19,0.616,0.426
		C16.16,36.264,15.886,36.452,15.545,36.452z M16.634,36.971c0-0.231,0.276-0.422,0.615-0.422c0.341,0,0.617,0.19,0.617,0.422
		c0,0.24-0.276,0.428-0.617,0.428C16.91,37.4,16.634,37.211,16.634,36.971z M17.677,38.206c0-0.236,0.276-0.423,0.613-0.423
		c0.34,0,0.616,0.189,0.616,0.423S18.63,38.63,18.29,38.63C17.95,38.63,17.677,38.439,17.677,38.206z M19.236,40.051
		c-0.34,0-0.616-0.19-0.616-0.423c0-0.237,0.276-0.428,0.616-0.428c0.339,0,0.616,0.19,0.616,0.428
		C19.849,39.861,19.574,40.051,19.236,40.051z M20.276,41.374c-0.341,0-0.619-0.19-0.619-0.427c0-0.234,0.276-0.425,0.619-0.425
		c0.337,0,0.615,0.19,0.615,0.425C20.891,41.184,20.613,41.374,20.276,41.374z M21.696,42.508c-0.341,0-0.616-0.19-0.616-0.426
		s0.275-0.427,0.616-0.427c0.339,0,0.616,0.19,0.616,0.427C22.312,42.321,22.034,42.508,21.696,42.508z M23.683,43.266
		c-0.341,0-0.616-0.19-0.616-0.427c0-0.237,0.275-0.426,0.616-0.426c0.337,0,0.615,0.19,0.615,0.426
		C24.296,43.077,24.02,43.266,23.683,43.266z M25.66,43.266c-0.341,0-0.616-0.19-0.616-0.427c0-0.237,0.275-0.426,0.616-0.426
		c0.339,0,0.615,0.19,0.615,0.426S25.997,43.266,25.66,43.266z M27.665,42.934c-0.341,0-0.616-0.19-0.616-0.426
		c0-0.232,0.275-0.422,0.616-0.422c0.339,0,0.616,0.189,0.616,0.422C28.28,42.745,28.003,42.934,27.665,42.934z M37.719,35.196
		c-9.362,0-16.946-1.409-16.946-10.455c0-2.167,1.064-4.176,2.891-5.847c3.046-2.78,8.203-1.308,14.054-1.308
		c5.826,0,10.964-1.49,14.018,1.275c1.848,1.676,2.93,3.697,2.93,5.88C54.665,34.92,47.078,35.196,37.719,35.196z"/>
	<g>
		<ellipse fill="#524640" cx="28.599" cy="25.322" rx="2.348" ry="3.385"/>
		<ellipse fill="#524640" cx="47.517" cy="25.322" rx="2.348" ry="3.385"/>
		<circle fill="#524640" cx="37.769" cy="29.77" r="0.882"/>
		<path fill="#524640" d="M39.634,31.636c-0.146-0.053-0.31,0.026-0.362,0.173c-0.228,0.639-0.835,1.07-1.513,1.07
			c-0.677,0-1.285-0.43-1.513-1.07c-0.052-0.146-0.215-0.227-0.363-0.173c-0.145,0.051-0.223,0.215-0.173,0.361
			c0.309,0.866,1.129,1.447,2.047,1.447c0.917,0,1.739-0.581,2.045-1.447C39.858,31.849,39.781,31.687,39.634,31.636z"/>
	</g>
	<g opacity="0.12">
		<ellipse fill="#524640" cx="15.545" cy="36.027" rx="0.617" ry="0.425"/>
		<path fill="#524640" d="M17.864,36.971c0-0.231-0.276-0.422-0.619-0.422c-0.337,0-0.615,0.19-0.615,0.422
			c0,0.24,0.277,0.428,0.615,0.428C17.59,37.4,17.864,37.211,17.864,36.971z"/>
		<ellipse fill="#524640" cx="18.292" cy="38.206" rx="0.615" ry="0.425"/>
		<ellipse fill="#524640" cx="19.236" cy="39.624" rx="0.615" ry="0.426"/>
		<ellipse fill="#524640" cx="20.276" cy="40.948" rx="0.617" ry="0.426"/>
		<ellipse fill="#524640" cx="21.696" cy="42.083" rx="0.615" ry="0.427"/>
		<ellipse fill="#524640" cx="23.683" cy="42.841" rx="0.617" ry="0.427"/>
		<ellipse fill="#524640" cx="25.66" cy="42.841" rx="0.619" ry="0.427"/>
		<path fill="#524640" d="M27.665,42.086c0.34,0,0.616,0.19,0.616,0.426c0,0.236-0.276,0.425-0.616,0.425
			c-0.341,0-0.616-0.19-0.616-0.425C27.051,42.277,27.325,42.086,27.665,42.086z"/>
	</g>
	<path fill="#524640" d="M28.555,20.184c1.95,0,3.529,2.272,3.529,5.076c0,2.802-1.58,5.075-3.529,5.075
		c-1.946,0-3.527-2.272-3.527-5.075C25.027,22.456,26.609,20.184,28.555,20.184 M28.555,19.784c-2.164,0-3.926,2.456-3.926,5.476
		s1.763,5.475,3.926,5.475c2.168,0,3.93-2.455,3.93-5.475C32.485,22.241,30.722,19.784,28.555,19.784L28.555,19.784z"/>
	<path fill="#524640" d="M47.474,20.184c1.948,0,3.527,2.272,3.527,5.076c0,2.802-1.578,5.075-3.527,5.075
		c-1.946,0-3.525-2.272-3.525-5.075C43.949,22.456,45.528,20.184,47.474,20.184 M47.474,19.784c-2.166,0-3.928,2.456-3.928,5.476
		s1.763,5.475,3.928,5.475c2.167,0,3.929-2.455,3.929-5.475C51.403,22.241,49.64,19.784,47.474,19.784L47.474,19.784z"/>
</g>
</svg>
