<?xml version="1.0" encoding="utf-8"?>
<!-- Generator: Adobe Illustrator 17.1.0, SVG Export Plug-In . SVG Version: 6.00 Build 0)  -->
<!DOCTYPE svg PUBLIC "-//W3C//DTD SVG 1.1//EN" "http://www.w3.org/Graphics/SVG/1.1/DTD/svg11.dtd">
<svg version="1.1" id="Layer_1" xmlns="http://www.w3.org/2000/svg" xmlns:xlink="http://www.w3.org/1999/xlink" x="0px" y="0px"
	 viewBox="0 0 5669.3 4252" enable-background="new 0 0 5669.3 4252" xml:space="preserve">
<g>
	<g>
		<path fill="#51453F" d="M3293.8,2752c-72.8,0-171.6-18.7-232.3-71.8c-83.9-74.6-125-194.9-125-369.4
			c0-109.1,11.2-247.2,96.1-339.5c68.1-74.6,183.8-101.7,262.1-101.7c77.4,0,193.1,26.1,261.2,99.8c85.8,93.3,97,231.3,97,340.5
			c0,174.4-41,294.8-125.9,369.4C3466.4,2733.3,3366.6,2752,3293.8,2752z M3293.8,1948.9c-67.2,0-155.8,23.3-203.3,75.6
			c-52.2,56.9-74.6,145.5-74.6,286.4c0,150.2,32.6,250.9,98.9,309.7c41,36.4,120.3,52.2,180,52.2s139-15.9,180-52.2
			c66.2-58.8,98.9-159.5,98.9-309.7c0-141.8-23.3-230.4-75.6-287.3C3449.6,1972.2,3361,1949.8,3293.8,1948.9z"/>
	</g>
	<g>
		<rect x="4675.2" y="1875.2" fill="#51453F" width="79.3" height="867.5"/>
	</g>
	<g>
		<path fill="#51453F" d="M2807.9,2734.3c-130.6,0-168.8-106.3-171.6-162.3V1476h79.3V2571c0.9,12.1,9.3,83.9,92.3,83.9V2734.3z"/>
	</g>
	<path fill="#51453F" d="M4495.2,2697.9c-58.8-134.3-212.7-138-285.4-120.3l-161.4,37.3l-5.6,1.9c-0.9,0-72.8,28.9-103.5-13.1
		c-12.1-15.9-11.2-43.8,1.9-73.7c16.8-38.2,57.8-83.9,119.4-94.2c22.4,2.8,44.8,4.7,64.4,4.7c28.9,0,129.7-3.7,193.1-45.7
		c73.7-49.4,111-132.5,111-247.2c0-44.8-4.7-103.5-29.8-155.8c49.4-26.1,97-74.6,97-154.8h-79.3c0,52.2-36.4,78.4-65.3,90.5
		c-2.8-2.8-4.7-5.6-8.4-8.4c-56.9-47.6-150.2-64.4-217.3-64.4c-68.1,0-161.4,16.8-218.3,65.3c-75.6,62.5-84.9,154.8-84.9,227.6
		c0,114.7,37.3,197.7,110.1,247.2c4.7,2.8,9.3,5.6,14,7.5c-36.4,28-62.5,63.4-76.5,97c-24.3,56-21.5,112.9,6.5,152
		c53.2,72.8,145.5,60.6,194,41l157.6-36.4c1.9,0,147.4-33.6,194.9,74.6c15.9,37.3,15.9,73.7,0.9,109.1
		c-26.1,57.8-93.3,111-177.2,139c-100.7,33.6-253.7,42-351.6-44.8c-41-36.4-33.6-113.8-27.1-140.8l-38.2-9.3l38.2,9.3l-76.5-18.7
		c-0.9,5.6-33.6,142.7,52.2,218.3c73.7,65.3,166,88.6,256.5,88.6c61.6,0,121.3-11.2,172.6-28c105.4-35.4,189.3-102.6,224.8-181.9
		C4520.4,2814.5,4520.4,2754.8,4495.2,2697.9z M3901.1,2146.6c0-83.9,16.8-134.3,56.9-167c32.6-27,101.7-46.6,167.9-46.6
		c55,0,128.7,14,167,45.7c40.1,33.6,56.9,83,56.9,167.9c0,87.7-24.3,147.4-75.6,181c-33.6,22.4-98.9,32.6-149.2,32.6
		c-50.4,0-115.7-10.3-149.2-32.6C3925.3,2294,3901.1,2234.3,3901.1,2146.6z"/>
	<circle fill="#51453F" cx="4712.5" cy="1542.2" r="66.2"/>
	<path fill="#51453F" d="M900.4,2739.9h79.3v-430c0-140.8,21.5-229.5,70.9-285.4c43.8-51.3,125.9-74.6,188.4-74.6
		c61.6,0,143.6,22.4,187.5,73.7c49.4,56.9,70.9,146.4,70.9,288.2v429.1h79.3v-429.1c0-109.1-10.3-247.2-90.5-339.5
		c-64.4-74.6-173.5-101.7-247.2-101.7c-74.6,0-183.8,27-248.1,102.6c-3.7,4.7-6.5,9.3-10.3,14v-111.9h-79.3v433.7c0,0.9,0,1.9,0,1.9
		l0,0v429.1H900.4z"/>
	<path fill="#51453F" d="M4991.4,2739.9h79.3v-430c0-140.8,21.5-229.5,70.9-285.4c43.8-51.3,125.9-74.6,188.4-74.6
		c61.6,0,143.6,22.4,187.5,73.7c49.4,56.9,70.9,146.4,70.9,288.2v429.1h79.3v-429.1c0-109.1-10.3-247.2-90.5-339.5
		c-64.4-74.6-173.5-101.7-247.2-101.7c-74.6,0-183.8,27-248.1,102.6c-3.7,4.7-6.5,9.3-10.3,14v-111.9h-79.3v433.7c0,0.9,0,1.9,0,1.9
		l0,0v429.1H4991.4z"/>
	<path fill="#51453F" d="M2447.8,2333.2V2294c0-112.9-11.2-230.4-93.3-322.7c-65.3-74.6-177.2-100.7-252.8-100.7
		c-93.3,0-179.1,37.3-236,101.7c-70.9,81.1-110.1,201.5-110.1,339.5c0,163.2,44.8,291,129.7,368.4c62.5,57.8,181.9,72.8,243.4,72.8
		c70.9,0,175.4-18.7,234.1-72.8c18.7-16.8,35.4-37.3,49.4-59.7l-66.2-42.9c-10.3,16.8-23.3,31.7-36.4,43.8
		c-39.2,35.4-120.3,51.3-180,51.3c-64.4,0-153-17.7-189.3-52.2c-63.4-57.8-98.9-160.4-102.6-288.2h610V2333.2z M1838.7,2253.9
		c8.4-94.2,39.2-174.4,87.7-229.5c42-47.6,106.3-74.6,176.3-74.6c63.4,0,148.3,23.3,193.1,73.7c47.6,53.2,68.1,119.4,72.8,230.4
		L1838.7,2253.9L1838.7,2253.9z"/>
	<path fill="#51453F" d="M616.8,1970.3c-68.1-73.7-182.8-99.8-261.2-99.8s-194,26.1-262.1,101.7c-84.9,93.3-96.1,230.4-96.1,339.5
		c0,173.5,41,294.8,125,369.4c60.6,53.2,159.5,71.8,232.3,71.8s171.6-18.7,232.3-71.8c84.9-74.6,125.9-194.9,125.9-369.4
		C712.9,2201.7,702.6,2063.6,616.8,1970.3z M417.2,2585h-83v-186.6l-54.1,31.7l-43.8-61.6l116.6-73.7h64.4L417.2,2585L417.2,2585z
		 M354.7,2160.6c-105.4,0-201.5,27-274.2,72.8c-0.2-1,0,0-0.2-1c7.5-95.9,30.6-161.6,72-207c47.6-52.2,136.2-75.6,203.3-75.6
		s154.8,23.3,202.4,74.6c41.7,45.6,65.5,111.9,73,209.3l-0.3,0.6C558.1,2187.7,461,2160.6,354.7,2160.6z"/>
</g>
</svg>
