<?xml version="1.0" encoding="utf-8"?>
<!-- Generator: Adobe Illustrator 17.0.0, SVG Export Plug-In . SVG Version: 6.00 Build 0)  -->
<!DOCTYPE svg PUBLIC "-//W3C//DTD SVG 1.1//EN" "http://www.w3.org/Graphics/SVG/1.1/DTD/svg11.dtd">
<svg version="1.1" id="Capa_1" xmlns="http://www.w3.org/2000/svg" xmlns:xlink="http://www.w3.org/1999/xlink" x="0px" y="0px"
	 width="79px" height="78.999px" viewBox="0 0 79 78.999" enable-background="new 0 0 79 78.999" xml:space="preserve">
<g>
	<g>
		<path fill="#524640" d="M18.644,41.999V36.92c0-0.428,0.032-0.819,0.096-1.177c0.063-0.356,0.17-0.693,0.32-1.011
			c0.15-0.316,0.34-0.585,0.57-0.803c0.23-0.219,0.523-0.392,0.881-0.518c0.356-0.127,0.766-0.19,1.226-0.19s0.869,0.063,1.226,0.19
			c0.356,0.126,0.65,0.299,0.881,0.518c0.229,0.218,0.42,0.486,0.57,0.803c0.15,0.317,0.257,0.654,0.32,1.011
			c0.063,0.357,0.096,0.749,0.096,1.177v5.079c0,2.47-1.031,3.705-3.093,3.705S18.644,44.469,18.644,41.999z M23.758,42.238v-5.558
			c0-1.733-0.674-2.6-2.021-2.6s-2.021,0.866-2.021,2.6v5.558c0,1.737,0.674,2.606,2.021,2.606S23.758,43.976,23.758,42.238z"/>
	</g>
	<g>
		<path fill="#524640" d="M26.66,45.514V33.391h3.233c0.408,0,0.768,0.057,1.078,0.169c0.31,0.113,0.56,0.262,0.75,0.447
			s0.344,0.416,0.461,0.69s0.198,0.559,0.243,0.853c0.045,0.293,0.067,0.619,0.067,0.976c0,1.545-0.563,2.524-1.69,2.938
			l1.873,6.051h-1.141l-1.769-5.917h-2.035v5.917H26.66z M27.731,38.737h2.155c0.305,0,0.563-0.062,0.774-0.184
			c0.212-0.122,0.37-0.296,0.476-0.521c0.105-0.226,0.18-0.461,0.222-0.705c0.043-0.244,0.063-0.523,0.063-0.838
			c0-0.259-0.013-0.491-0.038-0.697c-0.026-0.207-0.073-0.409-0.142-0.606c-0.067-0.197-0.158-0.362-0.271-0.496
			c-0.113-0.134-0.261-0.241-0.444-0.32c-0.183-0.08-0.396-0.12-0.641-0.12h-2.155V38.737z"/>
	</g>
	<g>
		<path fill="#524640" d="M37.036,45.514V33.391h1.071v5.487h3.733v-5.487h1.07v12.123h-1.07v-5.889h-3.733v5.889H37.036z"/>
	</g>
	<g>
		<path fill="#524640" d="M44.968,45.514V33.391h4.227v0.859h-3.155v4.593h2.254v0.811h-2.254v5.001h3.155v0.859H44.968z"/>
	</g>
	<g>
		<path fill="#524640" d="M50.568,45.514V33.391h3.233c0.408,0,0.768,0.057,1.078,0.169c0.31,0.113,0.56,0.262,0.75,0.447
			s0.344,0.416,0.461,0.69s0.198,0.559,0.243,0.853c0.045,0.293,0.067,0.619,0.067,0.976c0,1.545-0.563,2.524-1.69,2.938
			l1.873,6.051h-1.141l-1.769-5.917H51.64v5.917H50.568z M51.64,38.737h2.155c0.305,0,0.563-0.062,0.774-0.184
			c0.212-0.122,0.37-0.296,0.476-0.521c0.105-0.226,0.18-0.461,0.222-0.705c0.043-0.244,0.063-0.523,0.063-0.838
			c0-0.259-0.013-0.491-0.038-0.697c-0.026-0.207-0.073-0.409-0.142-0.606c-0.067-0.197-0.158-0.362-0.271-0.496
			c-0.113-0.134-0.261-0.241-0.444-0.32c-0.183-0.08-0.396-0.12-0.641-0.12H51.64V38.737z"/>
	</g>
	<g>
		<path fill="#524640" d="M58.084,45.514V33.391h4.227v0.859h-3.155v4.593h2.254v0.811h-2.254v5.001h3.155v0.859H58.084z"/>
	</g>
</g>
<g>
	<path fill="#524640" d="M39.511,78.999c-2.076,0-4.135-0.159-6.146-0.473l0.154-0.988C35.485,77.845,37.498,78,39.5,78l0.033,0.818
		l-0.005,0.181C39.522,78.999,39.517,78.999,39.511,78.999z M45.715,78.513l-0.156-0.988c1.985-0.313,3.96-0.787,5.871-1.409
		l0.309,0.951C49.778,77.704,47.752,78.19,45.715,78.513z M27.339,77.092c-1.963-0.634-3.891-1.431-5.729-2.367l0.453-0.891
		c1.792,0.912,3.671,1.688,5.583,2.307L27.339,77.092z M57.46,74.69L57.005,73.8c1.788-0.915,3.518-1.979,5.143-3.162l0.588,0.809
		C61.069,72.66,59.295,73.752,57.46,74.69z M16.324,71.489c-1.67-1.212-3.256-2.564-4.715-4.019l0.707-0.709
		c1.421,1.418,2.968,2.736,4.596,3.919L16.324,71.489z M67.442,67.42l-0.707-0.707c1.42-1.421,2.739-2.966,3.922-4.592l0.809,0.588
		C70.253,64.377,68.899,65.962,67.442,67.42z M7.577,62.768c-1.217-1.667-2.31-3.441-3.249-5.272l0.891-0.457
		c0.915,1.786,1.98,3.515,3.167,5.14L7.577,62.768z M74.708,57.428l-0.891-0.455c0.914-1.794,1.692-3.672,2.312-5.581L77.08,51.7
		C76.444,53.659,75.646,55.586,74.708,57.428z M1.945,51.777c-0.64-1.958-1.129-3.984-1.453-6.023l0.988-0.156
		c0.315,1.986,0.792,3.961,1.416,5.869L1.945,51.777z M78.521,45.675l-0.988-0.154C77.843,43.541,78,41.516,78,39.5l-0.001-0.158h1
		L79,39.491C79,41.567,78.839,43.645,78.521,45.675z M0,39.579V39.5c0-2.039,0.157-4.09,0.468-6.096l0.988,0.152
		C1.153,35.513,1,37.512,1,39.5L0,39.579z M77.509,33.325c-0.321-1.988-0.802-3.962-1.429-5.866l0.949-0.312
		c0.644,1.953,1.137,3.979,1.466,6.019L77.509,33.325z M2.847,27.683l-0.951-0.307c0.633-1.964,1.427-3.892,2.36-5.731l0.893,0.453
		C4.237,23.89,3.464,25.77,2.847,27.683z M73.746,21.892c-0.921-1.785-1.989-3.512-3.178-5.133l0.807-0.592
		c1.219,1.664,2.315,3.436,3.26,5.266L73.746,21.892z M8.297,16.943l-0.811-0.586c1.208-1.669,2.559-3.256,4.015-4.719l0.709,0.705
		C10.791,13.77,9.474,15.317,8.297,16.943z M66.63,12.183c-1.424-1.415-2.973-2.73-4.604-3.908l0.586-0.811
		c1.673,1.209,3.262,2.558,4.723,4.01L66.63,12.183z M16.789,8.408l-0.59-0.807c1.669-1.222,3.441-2.316,5.269-3.254l0.457,0.889
		C20.144,6.151,18.416,7.218,16.789,8.408z M56.868,5.131c-1.794-0.908-3.674-1.681-5.589-2.296l0.307-0.951
		c1.964,0.63,3.894,1.423,5.733,2.354L56.868,5.131z M27.496,2.908l-0.312-0.949c1.956-0.642,3.981-1.133,6.021-1.461l0.158,0.988
		C31.375,1.805,29.401,2.283,27.496,2.908z M45.403,1.449C43.465,1.151,41.479,1,39.5,1h-0.119V0H39.5
		c2.03,0,4.067,0.155,6.056,0.461L45.403,1.449z"/>
</g>
</svg>
