<?xml version="1.0" encoding="utf-8"?>
<!-- Generator: Adobe Illustrator 17.1.0, SVG Export Plug-In . SVG Version: 6.00 Build 0)  -->
<!DOCTYPE svg PUBLIC "-//W3C//DTD SVG 1.1//EN" "http://www.w3.org/Graphics/SVG/1.1/DTD/svg11.dtd">
<svg version="1.1" id="Capa_1" xmlns="http://www.w3.org/2000/svg" xmlns:xlink="http://www.w3.org/1999/xlink" x="0px" y="0px"
	 viewBox="705.2 3840.9 4111.3 1203.3" enable-background="new 705.2 3840.9 4111.3 1203.3" xml:space="preserve">
<g>
	<g>
		<g>
			<path fill="#524640" d="M1138.5,4073.8c-16.3,34.2-9.8,62.7,14.7,63.6c24.4,0.8,57.8-26.9,74.1-61.9
				c16.3-34.2,9.8-62.7-14.7-63.6C1187.4,4011.9,1154.8,4039.6,1138.5,4073.8z M1337.3,3949.2L1337.3,3949.2
				C1337.3,3950,1337.3,3950,1337.3,3949.2c-14.7,42.4-38.3,88.8-62.7,124.7c-50.5,75-123,122.2-162.1,105.9
				c-39.1-16.3-29.3-91.3,21.2-166.2c11.4-17.1,23.6-32.6,36.7-45.6l0,0c0,0,0-0.8-0.8-0.8l0,0c-16.3,2.4-31.8,5.7-48.1,9.8l0,0
				c-170.3,209.4-243.6,481.5-233,723.5l0,0c0,0,0,0.8-0.8,0.8l0,0c-101-40.7-174.4-137.7-181.7-260.7v-1.6
				c-13-219.2,162.1-443.2,390.3-501.1C1184.2,3915,1267.3,3920.7,1337.3,3949.2z"/>
			<path fill="#524640" d="M1273,4539.9c-16.3,11.4-34.2,22-52.1,31.8l0,0c0,0-0.8,0-0.8-0.8c-3.3-53-14.7-103.5-34.2-145.8
				c-52.1-113.2-143.4-122.2-203.7-19.6c-36.7,62.7-53.8,152.4-48.9,238.7v0.8c64.4,20.4,137.7,22,215.9,2.4
				c228.1-57.8,401.7-281.9,389.5-501.1c-11.4-192.3-162.9-316.1-353.6-304.7l0,0c-18.7,18.7-35.8,37.5-52.1,57l0,0
				c0,0,0,0.8,0.8,0.8l0,0c111.6-13.9,202.1,9,259.9,55.4c0,0,0,0,0,0.8l0,0C1191.5,4240,1216.8,4402.2,1273,4539.9
				C1273,4539,1273,4539,1273,4539.9L1273,4539.9z"/>
		</g>
		<g>
			<g>
				<path fill="#524640" d="M3831.3,4325.6c-31,31-54.6,89.6-54.6,136.1c0,40.7,15.5,66,41.6,66c42.4,0,78.2-44,91.3-108.4
					c2.4-14.7,5.7-29.3,7.3-42.4c1.6-13,3.3-24.4,3.3-32.6c-1.6-27.7-15.5-42.4-41.6-42.4C3862.2,4302,3845.9,4310.1,3831.3,4325.6z
					 M3873.6,4613.2L3873.6,4613.2l9.8-48.9c0-0.8,0-1.6-0.8-1.6c-0.8,0-0.8,0-1.6,0.8c-21.2,35.8-62.7,59.5-110,59.5
					c-77.4,0-111.6-68.4-111.6-136.9c0-77.4,30.1-154.8,81.5-206.1c43.2-43.2,97.8-65.2,159.7-65.2c47.3,0,81.5,13.9,103.5,39.9
					c32.6,39.1,29.3,97.8,21.2,140.1l-41.6,218.4c0,0,0,0.8-0.8,0.8L3873.6,4613.2C3874.5,4614,3874.5,4613.2,3873.6,4613.2z"/>
				<path fill="#524640" d="M3155,4214.8c47.3,0,83.1,10.6,99.4,20.4c0,0,0,0,0,0.8l-16.3,86.4l0,0c0,0,0,0-0.8,0
					c-19.6-10.6-53-22-88-22c-30.1,0-49.7,12.2-49.7,33.4c0,15.5,14.7,28.5,46.4,44c41.6,20.4,88,51.3,88,106.7
					c0,35.8-12.2,66-35.8,89.6c-31.8,31-82.3,48.1-144.2,48.1c-47.3-0.8-95.3-13-119-30.1c0,0,0,0,0-0.8l16.3-87.2c0,0,0,0,0-0.8
					c0,0,0,0,0.8,0c25.3,16.3,75.8,33.4,113.2,33.4c28.5,0,48.1-13,48.1-34.2c0-19.6-13.9-32.6-48.1-49.7
					c-54.6-27.7-82.3-61.9-82.3-103.5C2983.1,4268.6,3052.4,4214.8,3155,4214.8z"/>
				<path fill="#524640" d="M4299.8,4215.6c29.3,0,59.5,4.9,79.8,13.9c0,0,0.8,0,0,0.8l-17.9,92.9l0,0c0,0,0,0-0.8,0
					c-17.9-9.8-38.3-14.7-63.6-14.7c-82.3,0-132,71.7-132,141c0,58.7,39.1,79.8,75.8,79.8c32.6,0,60.3-7.3,96.1-24.4h0.8
					c0,0,0,0,0,0.8l-17.1,94.5l0,0c-26.9,13-68.4,20.4-110.8,20.4c-100.2,0-164.6-62.7-164.6-159.7
					C4045.6,4321.5,4154.7,4215.6,4299.8,4215.6z"/>
				<path fill="#524640" d="M2512.2,4215.6c29.3,0,59.5,4.9,79.8,13.9c0,0,0.8,0,0,0.8l-17.9,92.9l0,0c0,0,0,0-0.8,0
					c-17.9-9.8-38.3-14.7-63.6-14.7c-82.3,0-131.2,71.7-131.2,141c0,58.7,39.1,79.8,75.8,79.8c32.6,0,60.3-7.3,96.1-24.4h0.8
					c0,0,0,0,0,0.8l-17.9,95.3l0,0c-26.9,13-68.4,20.4-110.8,20.4c-100.2,0-164.6-62.7-164.6-159.7
					C2257.2,4321.5,2367.2,4215.6,2512.2,4215.6z"/>
				<path fill="#524640" d="M1891.4,4214c6.5,0,15.5,0.8,21.2,1.6l0,0c0,0,0,0,0,0.8l-22,112.4l0,0c0,0,0,0-0.8,0
					c-4.1-0.8-10.6-1.6-17.9-1.6c-78.2,0-109.2,76.6-121.4,140.1l-27.7,149.1c0,0,0,0.8-0.8,0.8h-114.1c0,0,0,0-0.8,0c0,0,0,0,0-0.8
					l75-393.5c0,0,0-0.8,0.8-0.8h101c0,0,0,0,0.8,0l0,0l-13.9,68.4c0,0.8,0,0.8,0.8,1.6c0.8,0,1.6,0,1.6-0.8
					C1803.4,4241.7,1844.9,4214,1891.4,4214z"/>
				<path fill="#524640" d="M2043.7,4325.6c-31,31-54.6,89.6-54.6,136.1c0,40.7,15.5,66,41.6,66c42.4,0,78.2-44,91.3-108.4
					c2.4-14.7,5.7-29.3,7.3-42.4c2.4-13,3.3-24.4,3.3-32.6c-1.6-27.7-15.5-42.4-41.6-42.4C2074.7,4302,2058.4,4310.1,2043.7,4325.6z
					 M2086.1,4613.2L2086.1,4613.2l9.8-48.9c0-0.8,0-1.6-0.8-1.6c-0.8,0-0.8,0-1.6,0.8c-21.2,35.8-62.7,59.5-110,59.5
					c-76.6,0-111.6-68.4-111.6-136.9c0-77.4,30.1-154.8,81.5-206.1c43.2-43.2,97.8-65.2,159.7-65.2c47.3,0,81.5,13.9,103.5,39.9
					c32.6,39.1,29.3,97.8,21.2,140.1l-41.6,218.4c0,0,0,0.8-0.8,0.8L2086.1,4613.2C2086.9,4614,2086.1,4613.2,2086.1,4613.2z"/>
				<path fill="#524640" d="M3425.5,4534.2c61.1,0,105.1-86.4,105.1-163c0-18.7-4.1-62.7-46.4-62.7c-43.2,0-79.8,48.9-93.7,123.8
					C3386.4,4457.6,3372.6,4534.2,3425.5,4534.2z M3525.8,4214.8c76.6,0,126.3,57.8,126.3,148.3c0,95.3-45.6,192.3-127.9,236.3
					c-75,39.9-141.8,22-162.9-9l0,0l-27.7,148.3c0,0,0,0.8-0.8,0.8h-114.9c0,0,0,0-0.8,0c0,0,0,0,0-0.8l98.6-517.4
					c0,0,0-0.8,0.8-0.8h101c0,0,0,0,0.8,0c0,0,0,0,0,0.8l-9.8,53c0,0.8,0,1.6,0.8,1.6c0.8,0,0.8,0,1.6-0.8l0.8-0.8
					C3440.2,4236,3481.8,4214.8,3525.8,4214.8z"/>
				<path fill="#524640" d="M2666.2,4085.2h114.1c0,0,0,0,0.8,0c0,0,0,0,0,0.8l-59.5,312c0,0,0,0,0,0.8c0,0,0,0,0.8,0l153.2-176
					c0,0,0,0,0.8,0h124.7h0.8l0,0l0,0L2843,4401.4l97,210.2l0,0l0,0c0,0,0,0-0.8,0h-123h-0.8l-94.5-206.9c0,0,0,0-0.8,0l0,0
					l-39.1,206.9c0,0,0,0.8-0.8,0.8H2566c0,0,0,0-0.8,0c0,0,0,0,0-0.8L2666.2,4085.2C2665.4,4086,2666.2,4085.2,2666.2,4085.2z"/>
				<path fill="#524640" d="M4613.4,4332.1c0-20.4-16.3-32.6-41.6-32.6c-49.7,0-81.5,39.9-90.4,77.4v1.6l0,0l0,0h1.6
					c66.8,0.8,105.1-6.5,121.4-22.8C4610.2,4349.2,4613.4,4341.9,4613.4,4332.1z M4585.7,4214.8c81.5,0,136.1,47.3,136.1,117.3
					c0,32.6-10.6,59.5-31.8,79.8c-38.3,37.5-110,54.6-219.2,51.3h-1.6l0,0l0,0v1.6c0,11.4,4.1,26.9,11.4,37.5
					c14.7,18.7,41.6,29.3,74.1,29.3c48.1,0,89.6-11.4,135.2-37.5h0.8c0,0,0,0,0,0.8l-17.9,96.1c0,0,0,0,0,0.8
					c-55.4,27.7-119.8,31-145,31c-107.5,0-169.5-60.3-169.5-164.6c0-60.3,22-120.6,61.1-166.2
					C4461.1,4241.7,4520.6,4214.8,4585.7,4214.8z"/>
			</g>
			<path fill="#524640" d="M4722.6,4573.3c-2.4,23.6,15.5,43.2,39.1,43.2c24.4,0,45.6-19.6,48.1-44c2.4-23.6-15.5-43.2-39.1-43.2
				C4746.2,4528.5,4724.2,4548.8,4722.6,4573.3z M4715.3,4572.5c2.4-27.7,26.9-50.5,55.4-50.5c27.7,0,48.1,22.8,45.6,50.5
				c-2.4,27.7-26.9,50.5-55.4,50.5C4733.2,4623,4712.8,4600.2,4715.3,4572.5z M4755.2,4542.3L4755.2,4542.3h13l0,0
				c3.3,0,5.7,0,7.3,0c2.4,0,4.1,0.8,5.7,0.8c6.5,2.4,9.8,7.3,9.8,13.9c0,0.8,0,2.4,0,3.3c-1.6,8.1-6.5,14.7-15.5,17.1l8.1,23.6l0,0
				l0,0l0,0h-8.1l0,0l-8.1-22.8h-4.9l0,0h-5.7l-4.1,22.8l0,0h-7.3l0,0l0,0l4.1-22.8l0,0l3.3-17.9L4755.2,4542.3z M4766.6,4549.6
				h-5.7l-2.4,11.4l-2.4,11.4h5.7h0.8c2.4,0,4.9,0,6.5,0c1.6,0,3.3,0,4.1-0.8c4.9-1.6,9-5.7,9.8-10.6c0.8-4.9-1.6-9-5.7-9.8
				c-0.8-0.8-2.4-0.8-4.1-0.8C4771.5,4549.6,4769.9,4549.6,4766.6,4549.6L4766.6,4549.6z"/>
		</g>
	</g>
	<g>
		<path fill="#524640" d="M2905.7,5000.2h-32.6c0,0,0,0-0.8,0c0,0,0,0,0-0.8l36.7-194.7c0,0,0-0.8,0.8-0.8h32.6c0,0,0,0,0.8,0
			c0,0,0,0,0,0.8L2905.7,5000.2C2906.5,5000.2,2906.5,5000.2,2905.7,5000.2z"/>
		<path fill="#524640" d="M4020.3,5000.2h-20.4c0,0,0,0-0.8,0c0,0,0,0,0-0.8l14.7-78.2c0.8-4.9,0.8-10.6,0.8-15.5
			c-1.6-17.9-13-28.5-30.1-28.5c-20.4,0-39.1,18.7-44,44l-14.7,78.2c0,0,0,0.8-0.8,0.8h-19.6c0,0,0,0-0.8,0c0,0,0,0,0-0.8l14.7-78.2
			c0.8-4.1,1.6-10.6,0.8-15.5c-1.6-17.1-13-28.5-30.1-28.5c-20.4,0-39.1,18.7-44,44l-14.7,78.2c0,0,0,0.8-0.8,0.8h-20.4
			c0,0,0,0-0.8,0c0,0,0,0,0-0.8l26.1-137.7c0,0,0-0.8,0.8-0.8h20.4c0,0,0,0,0.8,0c0,0,0,0,0,0.8l-4.1,20.4
			c12.2-14.7,24.4-23.6,43.2-23.6c19.6,0,35.8,11.4,41.6,30.1c11.4-19.6,30.1-30.1,53-30.1c25.3,0,44,17.1,46.4,43.2
			c0.8,4.9-0.8,11.4-1.6,17.1c0,1.6-0.8,2.4-0.8,4.1L4020.3,5000.2C4021.1,5000.2,4020.3,5000.2,4020.3,5000.2z"/>
		<path fill="#524640" d="M4492,5000.2h-20.4c0,0,0,0-0.8,0c0,0,0,0,0-0.8l14.7-78.2c0.8-4.1,1.6-10.6,0.8-15.5
			c-1.6-17.9-13.9-28.5-32.6-28.5c-21.2,0-40.7,18.7-45.6,44l-14.7,78.2c0,0,0,0.8-0.8,0.8h-20.4c0,0,0,0-0.8,0c0,0,0,0,0-0.8
			l26.1-137.7c0,0,0-0.8,0.8-0.8h20.4c0,0,0,0,0.8,0c0,0,0,0,0,0.8l-4.1,20.4c9.8-12.2,23.6-23.6,44.8-23.6
			c26.9,0,45.6,17.1,48.1,43.2c0.8,5.7,0,12.2-1.6,21.2L4492,5000.2C4492.9,5000.2,4492,5000.2,4492,5000.2z"/>
		<path fill="#524640" d="M4532,5044.2c-11.4,0-21.2-3.3-31-9.8v-0.8l9.8-15.5l0,0c0,0,0,0,0.8,0c4.9,4.1,14.7,6.5,21.2,6.5
			c12.2,0,22-7.3,33.4-25.3l-35.8-137.7c0,0,0,0,0-0.8c0,0,0,0,0.8,0h21.2c0,0,0.8,0,0.8,0.8l27.7,114.1l64.4-114.1c0,0,0,0,0.8,0
			h23.6c0,0,0,0,0.8,0c0,0,0,0,0,0.8l-83.1,142.6C4569.4,5032.8,4553.1,5044.2,4532,5044.2z"/>
		<path fill="#524640" d="M3572.2,5003.5c-31,0-62.7-21.2-66-61.1c-1.6-22,5.7-44,20.4-60.3c13.9-15.5,34.2-24.4,54.6-24.4
			c33.4,0,50.5,20.4,57.8,32.6v0.8l-15.5,10.6h-0.8c-7.3-11.4-19.6-24.4-40.7-24.4c-13.9,0-26.9,6.5-36.7,17.1
			c-11.4,12.2-17.9,30.1-16.3,47.3c2.4,27.7,23.6,42.4,44,42.4c14.7,0,26.1-5.7,39.1-17.9c0,0,0,0,0.8,0l0,0l0,0l13,13v0.8
			C3608.9,4996.1,3592.6,5003.5,3572.2,5003.5z"/>
		<path fill="#524640" d="M3159.9,5003.5c-26.1,0-44.8-17.1-47.3-42.4c-0.8-7.3,0.8-16.3,2.4-25.3l14.7-76.6c0,0,0-0.8,0.8-0.8h32.6
			c0,0,0,0,0.8,0c0,0,0,0,0,0.8l-14.7,78.2c-0.8,4.1-0.8,9.8-0.8,13.9c0.8,13.9,10.6,22,25.3,22c17.1,0,31-13.9,35-35l15.5-79
			c0,0,0-0.8,0.8-0.8h32.6c0,0,0,0,0.8,0c0,0,0,0,0,0.8l-26.9,141c0,0,0,0.8-0.8,0.8h-32.6c0,0,0,0-0.8,0c0,0,0,0,0-0.8l3.3-16.3
			C3190.9,4992.9,3178.7,5003.5,3159.9,5003.5z"/>
		<path fill="#524640" d="M2801.4,5003.5c-38.3,0-66.8-26.1-70.1-63.6c-1.6-22.8,5.7-44,20.4-60.3c14.7-16.3,35-25.3,57-25.3
			c32.6,0,50.5,17.9,60.3,32.6v0.8l-23.6,17.1c0,0,0,0-0.8,0l0,0c-7.3-10.6-17.1-21.2-35.8-21.2c-10.6,0-21.2,4.9-29.3,13.9
			c-9.8,11.4-15.5,26.1-13.9,41.6c1.6,20.4,16.3,35,35,35c13,0,22.8-4.9,34.2-15.5c0,0,0,0,0.8,0c0,0,0,0,0.8,0l18.7,21.2v0.8
			C2843,4992,2827.5,5003.5,2801.4,5003.5z"/>
		<path fill="#524640" d="M2627.9,5000.2h-32.6c0,0,0,0-0.8,0c0,0,0,0,0-0.8l14.7-78.2c0.8-4.1,1.6-9.8,0.8-13.9
			c-0.8-13.9-10.6-22-26.1-22c-17.1,0-31,13.9-35,35l-14.7,79c0,0,0,0.8-0.8,0.8h-32.6c0,0,0,0-0.8,0c0,0,0,0,0-0.8l26.9-141
			c0,0,0-0.8,0.8-0.8h32.6c0,0,0,0,0.8,0c0,0,0,0,0,0.8l-3.3,16.3c9-9.8,22-19.6,40.7-19.6c26.1,0,44.8,17.1,46.4,42.4
			c0.8,7.3-0.8,17.1-2.4,25.3L2627.9,5000.2C2628.7,5000.2,2628.7,5000.2,2627.9,5000.2z"/>
		<path fill="#524640" d="M1762.6,5000.2h-20.4c0,0,0,0-0.8,0c0,0,0,0,0-0.8l14.7-78.2c0.8-4.1,1.6-10.6,0.8-15.5
			c-1.6-17.9-13.9-28.5-32.6-28.5c-21.2,0-40.7,18.7-45.6,44l-14.7,78.2c0,0,0,0.8-0.8,0.8h-20.4c0,0,0,0-0.8,0c0,0,0,0,0-0.8
			l36.7-194.7c0,0,0-0.8,0.8-0.8h20.4c0,0,0,0,0.8,0c0,0,0,0,0,0.8l-14.7,77.4c9.8-12.2,23.6-23.6,44.8-23.6
			c26.9,0,45.6,17.1,48.1,43.2c0,5.7,0,12.2-1.6,21.2L1762.6,5000.2C1763.4,5000.2,1762.6,5000.2,1762.6,5000.2z"/>
		<path fill="#524640" d="M1866.1,5003.5c-36.7,0-63.6-23.6-66-59.5c-1.6-22.8,6.5-46.4,21.2-62.7c13.9-15.5,32.6-23.6,53-23.6
			c37.5,0,56.2,26.9,57.8,53.8c0.8,9,0,17.9-2.4,26.1c0,0,0,0.8-0.8,0.8h-107.5c0,1.6,0,3.3,0,4.1v0.8c1.6,25.3,19.6,40.7,44,40.7
			c17.9,0,29.3-6.5,40.7-16.3l0,0c0,0,0,0,0.8,0l11.4,13.9v0.8C1908.5,4992,1893,5003.5,1866.1,5003.5z M1822.9,4922h88
			c0.8-2.4,0.8-5.7,0-9.8c-1.6-17.1-11.4-35-36.7-35c-13.9,0-26.9,5.7-36.7,16.3C1831.1,4900.8,1826.2,4910.6,1822.9,4922z"/>
		<path fill="#524640" d="M1591.5,5002.6c-21.2,0-35-10.6-35.8-27.7c0-4.1,0-9.8,0.8-14.7l15.5-79.8h-17.9c0,0,0,0-0.8,0
			c0,0,0,0,0-0.8l3.3-17.9c0,0,0-0.8,0.8-0.8h18.7l8.1-41.6c0,0,0-0.8,0.8-0.8h20.4c0,0,0,0,0.8,0c0,0,0,0,0,0.8l-8.1,40.7h42.4
			c0,0,0,0,0.8,0c0,0,0,0,0,0.8l-3.3,17.9c0,0,0,0.8-0.8,0.8H1594l-15.5,79c0,2.4-0.8,6.5,0,9.8c0.8,11.4,11.4,13.9,19.6,13.9
			c6.5,0,13-1.6,19.6-4.1h0.8c0,0,0,0,0,0.8l-4.1,18.7c0,0,0,0,0,0.8C1607,5001.8,1600.5,5002.6,1591.5,5002.6z"/>
		<path fill="#524640" d="M3018.2,5003.5c-39.1,0-69.3-26.9-71.7-65.2c-1.6-21.2,5.7-42.4,20.4-58.7c14.7-16.3,34.2-24.4,56.2-24.4
			c19.6,0,36.7,6.5,49.7,18.7c13,11.4,20.4,28.5,22,46.4c1.6,21.2-5.7,42.4-20.4,58.7C3059.7,4994.5,3040.2,5003.5,3018.2,5003.5z
			 M3023.1,4884.5c-10.6,0-21.2,4.9-30.1,13c-9.8,9.8-14.7,25.3-13.9,39.9c1.6,22.8,16.3,36.7,38.3,36.7c11.4,0,22-4.9,29.3-13
			c9.8-9.8,14.7-25.3,13.9-39.9C3059.7,4898.4,3045,4884.5,3023.1,4884.5z"/>
		<path fill="#524640" d="M3719.7,5003.5c-37.5,0-65.2-26.1-68.4-62.7c-1.6-21.2,5.7-43.2,20.4-58.7c14.7-15.5,34.2-24.4,54.6-24.4
			c37.5,0,66,25.3,68.4,61.9c1.6,21.2-5.7,42.4-20.4,58.7C3760.4,4994.5,3740,5003.5,3719.7,5003.5z M3727,4877.2
			c-13.9,0-26.9,5.7-37.5,17.1c-11.4,12.2-17.1,29.3-16.3,45.6c2.4,26.9,19.6,43.2,46.4,43.2c13.9,0,27.7-5.7,37.5-17.1
			c11.4-12.2,17.1-29.3,16.3-45.6C3771,4894.3,3753.1,4877.2,3727,4877.2z"/>
		<path fill="#524640" d="M4066.7,5043.4h-20.4c0,0,0,0-0.8,0c0,0,0,0,0-0.8l34.2-180.9c0,0,0-0.8,0.8-0.8h20.4c0,0,0,0,0.8,0
			c0,0,0,0,0,0.8l-4.1,21.2c13.9-17.1,30.1-25.3,48.9-25.3c32.6,0,57,24.4,60.3,58.7c1.6,24.4-5.7,47.3-21.2,63.6
			c-13,14.7-31.8,22.8-50.5,22.8c-30.1,0-45.6-17.9-54.6-33.4L4066.7,5043.4C4066.7,5042.6,4066.7,5043.4,4066.7,5043.4z
			 M4141.7,4877.2c-14.7,0-28.5,6.5-39.1,17.9c-12.2,13-17.9,29.3-17.1,45.6c1.6,24.4,21.2,42.4,45.6,42.4
			c13.9,0,26.9-5.7,36.7-15.5c11.4-13,17.1-31,15.5-48.9C4181.6,4894.3,4164.5,4877.2,4141.7,4877.2z"/>
		<path fill="#524640" d="M4269.6,5003.5c-21.2,0-45.6-12.2-47.3-39.1c-0.8-13,2.4-24.4,10.6-33.4c10.6-11.4,26.9-17.1,47.3-17.1
			c14.7,0,31,2.4,48.9,7.3l0.8-2.4c0.8-4.1,0.8-9,0.8-13c-1.6-17.9-14.7-27.7-39.1-27.7c-16.3,0-28.5,3.3-38.3,7.3c0,0,0,0-0.8,0
			l0,0l-4.9-17.1v-0.8c14.7-5.7,29.3-8.1,45.6-8.1c35,0,56.2,15.5,57.8,43.2c0.8,5.7,0,12.2-1.6,19.6l-14.7,78.2c0,0,0,0.8-0.8,0.8
			h-20.4c0,0,0,0-0.8,0c0,0,0,0,0-0.8l4.1-19.6C4305.5,4995.3,4289.2,5003.5,4269.6,5003.5z M4282.7,4930.1
			c-13.9,0-24.4,4.1-31,11.4c-4.9,5.7-7.3,12.2-7.3,20.4c0.8,14.7,13,24.4,31,24.4c24.4,0,45.6-17.1,50.5-40.7l1.6-9
			C4313.6,4932.6,4297.3,4930.1,4282.7,4930.1z"/>
		<path fill="#524640" d="M3329.4,5003.5c-33.4,0-57.8-24.4-60.3-61.1c-1.6-24.4,5.7-47.3,21.2-64.4c13.9-14.7,32.6-22.8,51.3-22.8
			c21.2,0,37.5,9,49.7,26.9l14.7-77.4c0,0,0-0.8,0.8-0.8h32.6c0,0,0,0,0.8,0c0,0,0,0,0,0.8l-36.7,194.7c0,0,0,0.8-0.8,0.8h-32.6
			c0,0,0,0-0.8,0c0,0,0,0,0-0.8l3.3-16.3C3358.7,4996.9,3344.9,5003.5,3329.4,5003.5z M3347.3,4884.5c-11.4,0-22,4.9-30.1,13
			c-9.8,10.6-14.7,26.1-13.9,42.4c1.6,21.2,15.5,34.2,35.8,34.2c11.4,0,23.6-4.9,31.8-14.7c10.6-11.4,15.5-26.1,14.7-40.7
			C3383.2,4898.4,3367.7,4884.5,3347.3,4884.5z"/>
		<path fill="#524640" d="M2200.2,5043.4h-32.6c0,0,0,0-0.8,0c0,0,0,0,0-0.8l35-184.1c0,0,0-0.8,0.8-0.8h32.6c0,0,0,0,0.8,0
			c0,0,0,0,0,0.8l-3.3,17.1c13-13.9,26.9-20.4,42.4-20.4c33.4,0,57.8,24.4,60.3,61.1c1.6,24.4-5.7,47.3-21.2,64.4
			c-13.9,14.7-32.6,22.8-51.3,22.8c-21.2,0-38.3-9-49.7-26.9L2200.2,5043.4C2201,5042.6,2201,5043.4,2200.2,5043.4z M2265.3,4884.5
			c-12.2,0-22.8,4.9-31.8,14.7c-9.8,10.6-15.5,26.1-13.9,40.7c1.6,20.4,17.1,35,37.5,35c11.4,0,22.8-4.9,30.1-13
			c9.8-10.6,14.7-26.1,13.9-42.4C2298.7,4897.5,2284.9,4884.5,2265.3,4884.5z"/>
		<path fill="#524640" d="M2423.4,5003.5c-39.9,0-66.8-23.6-69.3-61.9c-1.6-22.8,6.5-45.6,21.2-61.9c14.7-15.5,34.2-24.4,55.4-24.4
			c34.2,0,58.7,22,61.1,55.4c0.8,9.8-0.8,20.4-4.1,30.1c0,0,0,0-0.8,0h-101.8c1.6,22,16.3,35,39.1,35c13,0,22.8-4.1,35-13.9h0.8
			l17.1,20.4v0.8C2461.7,4996.9,2444.6,5003.5,2423.4,5003.5z M2387.5,4918.7h71.7c0.8-2.4,0.8-5.7,0.8-9
			c-1.6-16.3-12.2-26.1-29.3-26.1c-12.2,0-22.8,4.9-31,13.9C2394.1,4902.4,2390,4909.8,2387.5,4918.7z"/>
		<path fill="#524640" d="M2088.5,5003.5c-39.1,0-69.3-26.9-71.7-65.2c-1.6-21.2,5.7-42.4,20.4-58.7s34.2-24.4,56.2-24.4
			c19.6,0,36.7,6.5,49.7,18.7c12.2,11.4,20.4,28.5,22,46.4c1.6,21.2-5.7,42.4-20.4,58.7C2130.1,4994.5,2110.5,5003.5,2088.5,5003.5z
			 M2093.4,4884.5c-10.6,0-21.2,4.9-29.3,13c-9.8,9.8-14.7,25.3-13.9,39.9c1.6,22.8,16.3,36.7,38.3,36.7c11.4,0,22-4.9,29.3-13
			c9.8-9.8,14.7-25.3,13.9-39.9C2130.1,4898.4,2115.4,4884.5,2093.4,4884.5z"/>
	</g>
</g>
</svg>
