<?xml version="1.0" encoding="utf-8"?>
<!-- Generator: Adobe Illustrator 17.1.0, SVG Export Plug-In . SVG Version: 6.00 Build 0)  -->
<!DOCTYPE svg PUBLIC "-//W3C//DTD SVG 1.1//EN" "http://www.w3.org/Graphics/SVG/1.1/DTD/svg11.dtd">
<svg version="1.1" id="Layer_2" xmlns="http://www.w3.org/2000/svg" xmlns:xlink="http://www.w3.org/1999/xlink" x="0px" y="0px"
	 viewBox="0 0 5669.3 4252" enable-background="new 0 0 5669.3 4252" xml:space="preserve">
<g>
	<polygon fill="#FFFFFF" points="4746.6,3334.6 972.2,4164.6 972.2,4252 4746.6,3422 	"/>
	<g>
		<path fill="#FFFFFF" d="M1304.2,1753.2c0-2.9,0-5.8,0-8.7c0-2.9,0-5.8-2.9-11.6c-2.9-14.6-8.7-29.1-20.4-37.9
			c-11.6-8.7-29.1-11.6-49.5-8.7l-113.6,26.2v629.1c0,0-8.7,0-23.3,2.9s-32,5.8-49.5,11.6c-5.8,0-11.6,2.9-17.5,2.9
			c-5.8,0-11.6,2.9-14.6,2.9v-629.1l-90.3,20.4v-99l90.3-20.4V757.2l221.3-49.5c49.5-11.6,90.3-2.9,122.3,23.3
			c34.9,26.2,49.5,64.1,49.5,113.6v634.9c0,20.4-2.9,43.7-11.6,64.1c-5.8,20.4-17.5,40.8-29.1,58.2c11.6,11.6,23.3,26.2,29.1,43.7
			c5.8,17.5,11.6,43.7,11.6,78.6v364c0,20.4,5.8,34.9,17.5,43.7c11.6,8.7,23.3,14.6,34.9,14.6c11.6,2.9,20.4,2.9,29.1,0
			c8.7-2.9,17.5-2.9,20.4-2.9h2.9v107.8c0,0-2.9,0-5.8,0c-2.9,0-2.9,0-5.8,2.9c-49.5,5.8-96.1,5.8-136.9-5.8
			c-40.8-11.6-64.1-55.3-64.1-134v-361.1H1304.2z M1286.8,821.3c-14.6-11.6-29.1-14.6-49.5-11.6l-122.3,26.2v774.7l113.6-26.2
			c23.3-5.8,40.8-14.6,55.3-29.1c14.6-14.6,23.3-32,23.3-52.4v-632C1307.1,850.4,1298.4,832.9,1286.8,821.3z"/>
		<path fill="#FFFFFF" d="M1647.9,1595.9l-96.1,20.4v-101.9l93.2-20.4V617.4l367-81.5v101.9L1752.7,696v774.7l267.9-58.2v99
			l-267.9,58.2v533l267.9-58.2v99l-372.8,81.5V1595.9L1647.9,1595.9z"/>
		<path fill="#FFFFFF" d="M2268.2,2091c-49.5,8.7-96.1,2.9-134-23.3c-37.9-26.2-58.2-64.1-58.2-116.5V699
			c0-58.2,20.4-107.8,61.2-145.6s84.5-61.2,131.1-75.7h2.9h2.9c55.3-11.6,101.9-5.8,139.8,14.6c37.9,23.3,58.2,61.2,58.2,116.5V798
			l-101.9,23.3V632c0,0,0-2.9,0-5.8c0-2.9,0-2.9-2.9-5.8c-2.9-14.6-11.6-29.1-29.1-37.9s-37.9-11.6-61.2-8.7
			c-26.2,5.8-49.5,17.5-67,34.9c-17.5,17.5-26.2,37.9-26.2,61.2v1252.3c0,26.2,8.7,43.7,26.2,55.3s37.9,14.6,61.2,8.7
			c29.1-5.8,52.4-20.4,72.8-40.8c20.4-20.4,29.1-43.7,29.1-69.9v-439.8l-99,20.4v-99c64.1-14.6,128.1-29.1,200.9-43.7v550.4
			c0,55.3-20.4,101.9-61.2,145.6C2370.1,2050.3,2323.5,2076.5,2268.2,2091L2268.2,2091z"/>
		<path fill="#FFFFFF" d="M2547.8,419.4l107.8-23.3v1607.6l-107.8,23.3V419.4z"/>
		<path fill="#FFFFFF" d="M3010.8,495.1c0-20.4-8.7-37.9-26.2-49.5c-17.5-11.6-40.8-14.6-67-8.7c-2.9,0-5.8,2.9-8.7,2.9
			c-2.9,0-5.8,2.9-8.7,2.9c-20.4,5.8-37.9,17.5-55.3,34.9c-17.5,17.5-26.2,34.9-26.2,58.2v634.9c0,32,8.7,49.5,26.2,58.2
			s34.9,11.6,58.2,11.6c2.9,0,5.8,0,5.8-2.9c0-2.9,2.9,0,5.8-2.9c2.9,0,8.7-2.9,11.6-2.9c2.9,0,5.8,0,8.7-2.9
			c40.8-5.8,78.6,0,110.7,14.6c32,17.5,49.5,52.4,49.5,110.7v367c0,49.5-20.4,96.1-58.2,136.9s-84.5,69.9-139.8,84.5
			c-58.2,11.6-104.8,5.8-139.8-23.3c-34.9-29.1-52.4-64.1-52.4-104.8v-2.9v-2.9v-189.3l101.9-23.3v189.3c0,23.3,8.7,40.8,26.2,52.4
			c17.5,11.6,40.8,17.5,67,11.6c26.2-5.8,49.5-17.5,67-37.9c17.5-20.4,29.1-43.7,29.1-69.9v-361.1c0-23.3-8.7-37.9-23.3-43.7
			c-14.6-5.8-32-8.7-49.5-5.8h-2.9h-2.9c-11.6,2.9-23.3,2.9-34.9,5.8c-11.6,0-26.2,2.9-37.9,0c-32-2.9-61.2-11.6-87.4-32
			c-26.2-20.4-37.9-58.2-37.9-113.6v-632c0-46.6,14.6-87.4,43.7-122.3c29.1-34.9,61.2-61.2,96.1-75.7c8.7-5.8,17.5-8.7,26.2-11.6
			c8.7-2.9,17.5-5.8,26.2-8.7h2.9h2.9c55.3-11.6,101.9-2.9,136.9,20.4c37.9,23.3,55.3,61.2,55.3,113.6v183.5l-99,23.3L3010.8,495.1
			L3010.8,495.1z"/>
		<path fill="#FFFFFF" d="M3409.8,1834.8l-107.8,23.3V355.3l-145.6,32V282.5l393.2-87.4v101.9l-139.8,32V1834.8z"/>
		<path fill="#FFFFFF" d="M3683.6,1144.5l-96.1,20.4v-99l93.2-20.4V168.9l369.9-81.5v101.9l-259.2,58.2v774.7l267.9-58.2v99
			l-267.9,58.2v533l267.9-58.2v99l-372.8,81.5v-632H3683.6z"/>
		<path fill="#FFFFFF" d="M4493.2,1048.4c0-2.9,0-5.8,0-8.7s0-5.8-2.9-11.6c-2.9-14.6-8.7-29.1-20.4-37.9
			c-11.6-8.7-29.1-11.6-49.5-8.7l-113.6,26.2v629.1c0,0-8.7,0-23.3,2.9c-14.6,2.9-32,5.8-49.5,11.6c-5.8,0-11.6,2.9-14.6,2.9
			c-5.8,0-11.6,2.9-14.6,2.9V1028l-90.3,20.4v-99l90.3-20.4V52.4l221.3-49.5c49.5-11.6,90.3-2.9,122.3,23.3
			c34.9,26.2,49.5,64.1,49.5,113.6v634.9c0,20.4-2.9,43.7-11.6,64.1c-5.8,20.4-17.5,40.8-29.1,58.2c11.6,11.6,23.3,26.2,29.1,43.7
			c5.8,17.5,11.6,43.7,11.6,78.6v364c0,20.4,5.8,34.9,17.5,43.7c11.6,8.7,23.3,14.6,34.9,14.6c11.6,2.9,20.4,2.9,29.1,0
			c8.7-2.9,17.5-2.9,20.4-2.9h2.9v107.8c0,0-2.9,0-5.8,0c-2.9,0-2.9,0-5.8,2.9c-49.5,5.8-96.1,5.8-136.9-5.8s-64.1-55.3-64.1-134
			v-361.1H4493.2z M4472.8,116.5c-14.6-11.6-29.1-14.6-49.5-11.6L4301,134v774.7l113.6-26.2c23.3-5.8,40.8-14.6,55.3-29.1
			c14.6-14.6,23.3-32,23.3-52.4V166C4493.2,145.6,4487.4,128.1,4472.8,116.5z"/>
	</g>
	<g>
		<g>
			<path fill="#FFFFFF" d="M1723.6,3247.2l5.8-800.9c0-23.3,11.6-34.9,32-40.8l265-55.3c20.4-5.8,32,5.8,32,26.2l-11.6,1330.9
				c0,23.3-11.6,34.9-32,40.8l-378.6,78.6c-23.3,5.8-34.9-2.9-43.7-23.3L1333.4,3055l-5.8,806.7c0,23.3-11.6,34.9-32,40.8l-265,55.3
				c-23.3,5.8-32-2.9-32-26.2l11.6-1333.8c0-23.3,11.6-34.9,32-40.8l378.6-81.5c23.3-5.8,34.9,2.9,43.7,23.3L1723.6,3247.2z"/>
			<path fill="#FFFFFF" d="M3086.6,3206.5c0,87.4-32,168.9-93.2,241.7c-61.2,75.7-134,119.4-218.4,139.8l-282.5,61.2
				c-84.5,17.5-157.3,2.9-218.4-46.6c-58.2-49.5-90.3-116.5-87.4-203.9l5.8-768.8c0-87.4,32-168.9,93.2-241.7
				c61.2-75.7,134-119.4,218.4-139.8l282.5-61.2c84.5-17.5,157.3-2.9,218.4,46.6c58.2,49.5,90.3,116.5,87.4,203.9L3086.6,3206.5z
				 M2515.7,3279.3c0,55.3,26.2,78.6,81.5,67l78.6-17.5c55.3-11.6,81.5-46.6,81.5-101.9l5.8-672.7c0-55.3-26.2-78.6-81.5-67
				l-78.6,17.5c-55.3,11.6-81.5,46.6-81.5,101.9L2515.7,3279.3z"/>
			<path fill="#FFFFFF" d="M3960.3,2309.5l-148.5,1025.1c-5.8,23.3-17.5,37.9-40.8,40.8l-361.1,75.7c-23.3,5.8-34.9-2.9-37.9-26.2
				l-166-1293.1c0-2.9,0-5.8,0-8.7c0-14.6,8.7-26.2,26.2-29.1l256.3-55.3c23.3-5.8,34.9,2.9,37.9,26.2L3637,3104.5l145.6-1095
				c2.9-23.3,17.5-37.9,37.9-40.8l279.6-58.2c23.3-5.8,34.9,2.9,37.9,26.2L4266,2973.5l128.1-1089.2c2.9-23.3,17.5-37.9,37.9-40.8
				l256.3-55.3c17.5-2.9,26.2,2.9,26.2,17.5c0,2.9,0,5.8,0,11.6l-189.3,1368.8c-5.8,23.3-17.5,37.9-40.8,40.8l-361.1,75.7
				c-23.3,5.8-34.9-2.9-37.9-26.2L3960.3,2309.5z"/>
		</g>
	</g>
</g>
</svg>
