<?xml version="1.0" encoding="utf-8"?>
<!-- Generator: Adobe Illustrator 17.0.0, SVG Export Plug-In . SVG Version: 6.00 Build 0)  -->
<!DOCTYPE svg PUBLIC "-//W3C//DTD SVG 1.1//EN" "http://www.w3.org/Graphics/SVG/1.1/DTD/svg11.dtd">
<svg version="1.1" id="Capa_1" xmlns="http://www.w3.org/2000/svg" xmlns:xlink="http://www.w3.org/1999/xlink" x="0px" y="0px"
	 width="93.897px" height="79.036px" viewBox="0 0 93.897 79.036" enable-background="new 0 0 93.897 79.036" xml:space="preserve">
<g>
	<g>
		<path fill="#524640" d="M10.834,36.545c-0.76,2.016-2.122,6.204-2.122,6.204l-2.509-2.508l1.955-5.653L6.033,32.38l-3.868,3.824
			L0,34.123l10.75-10.75l3.57,3.569c0,0,3.039,2.237,3.186,4.974c0.082,1.518-0.581,2.577-1.316,3.356
			c-0.845,0.893-1.992,1.867-3.91,1.7C11.736,36.924,11.306,36.747,10.834,36.545z M8.03,30.34c0,0,1.624,1.624,1.91,1.912
			c0.617,0.618,1.283,1.508,2.168,1.657c1.113,0.186,2.251-0.887,2.295-1.91c0.041-1.019-1.239-2.039-1.239-2.039l-2.374-2.381
			L8.03,30.34z"/>
		<polygon fill="#524640" points="80.099,25.708 90.125,35.694 88.257,37.607 79.174,28.565 		"/>
		<g>
			<path fill="#524640" d="M59.488,17.464c-0.257-0.139-1.311,0-1.742,0c-1.84,0-3.783,0.033-5.312-0.042
				C52.446,11.626,52.59,5.736,52.52,0c-3.601,3.148-7.673,6.742-11.432,9.985c-0.266,0.23-1.548,1.157-1.571,1.486
				c-0.009,0.134,0.248,0.504,0.342,0.721c0.762,1.807,1.465,3.561,2.166,5.27c-2.536,0-5.069,0-7.606,0
				c3.809,3.951,7.77,7.813,11.772,11.814c0.208,0.209,0.692,0.813,0.808,0.807c0.075-0.003,0.571-0.613,0.765-0.807
				c3.768-3.769,7.283-7.285,11.046-11.049C58.957,18.083,59.613,17.533,59.488,17.464z M46.994,29.567L35.2,17.778h7.364l-2.537-6
				L52.166,1.067L52,17.743l6.705,0.038L46.994,29.567z"/>
			<path fill="#524640" d="M51.764,1.941l-11.267,9.943l2.655,6.285h-7.008l10.849,10.842l10.776-10.846l-6.164-0.036L51.764,1.941z
				 M49.759,11.049c-0.142,0.93-0.314,1.92-0.425,2.719c-0.211,1.507-0.753,4.774-1.378,5.806c-0.649,1.075-1.903,2.106-2.955,2.33
				c-1.467,0.31-2.982,0.349-3.472,0.134c-0.314-0.139-0.58-0.52-0.907-0.792c-0.964-0.803-2.06-1.615-2.847-2.421
				c2.058,0.051,4.101,0.119,6.204,0.128c-0.914-2.246-3.017-6.969-3.017-6.969l10.029-8.96
				C50.992,3.024,50.164,8.383,49.759,11.049z"/>
		</g>
		<g>
			<path fill="#524640" d="M36.095,23.085c-0.914-0.908-1.829-1.816-2.74-2.726c-0.91,0.909-1.822,1.816-2.736,2.722
				c-2.615,2.596-5.317,5.283-7.928,7.974c0.907,0.908,1.809,1.818,2.712,2.727c2.588,2.606,5.265,5.3,7.95,7.901
				c1.79-1.763,3.591-3.57,5.335-5.317c1.742-1.747,3.54-3.55,5.331-5.313C41.411,28.364,38.709,25.68,36.095,23.085z
				 M32.888,29.577c-0.189,0.216-0.384,0.489-0.553,0.636c-1.743,1.52-5.729,1.296-8.456,0.765c-0.079-0.16,0.246-0.426,0.424-0.595
				c3.025-2.819,6.087-6.049,9.094-8.922c0.036-0.009,0.041,0.015,0.043,0.042C34.405,24.13,34.433,27.798,32.888,29.577z"/>
			<path fill="#524640" d="M33.355,18.867c-4.063,4.054-8.162,8.069-12.154,12.196c4.041,4.046,8.042,8.134,12.154,12.11
				c4.076-4.013,8.078-8.099,12.155-12.11C41.518,26.936,37.417,22.922,33.355,18.867z M38.965,36.646
				c-1.788,1.79-3.637,3.644-5.472,5.451l-0.135,0.133l-0.137-0.133c-2.735-2.643-5.457-5.388-8.093-8.039
				c-0.947-0.954-1.896-1.909-2.847-2.862l-0.134-0.137l0.133-0.137c2.653-2.743,5.406-5.475,8.066-8.118
				c0.959-0.953,1.919-1.904,2.874-2.859l0.138-0.137l0.137,0.137c0.958,0.956,1.918,1.909,2.878,2.863
				c2.661,2.642,5.41,5.374,8.064,8.116l0.134,0.139l-0.138,0.135C42.599,33.001,40.751,34.856,38.965,36.646z"/>
		</g>
		<g>
			<path fill="#524640" d="M66.131,25.754c-1.74-1.744-3.538-3.547-5.326-5.309c-3.573,3.542-7.171,7.142-10.699,10.7
				c1.792,1.769,3.597,3.577,5.345,5.328c1.749,1.752,3.556,3.565,5.351,5.335c1.551-1.586,3.145-3.169,4.689-4.707
				c1.973-1.961,4.012-3.989,5.976-6.028C69.677,29.309,67.875,27.503,66.131,25.754z M60.339,29.66
				c-0.193,0.225-0.418,0.489-0.595,0.638c-1.82,1.539-5.678,1.309-8.456,0.765c-0.046-0.181,0.283-0.366,0.467-0.553
				c2.943-2.941,6.116-6.023,9.094-8.966C61.864,24.156,61.886,27.87,60.339,29.66z"/>
			<path fill="#524640" d="M60.806,18.952c-4.082,4.048-8.147,8.113-12.194,12.196c4.089,4.027,8.104,8.127,12.194,12.152
				c4.02-4.112,8.17-8.09,12.155-12.235C68.884,27.05,64.882,22.965,60.806,18.952z M65.768,37.38
				c-1.59,1.577-3.231,3.211-4.824,4.841l-0.135,0.14l-0.14-0.137c-1.841-1.817-3.698-3.676-5.493-5.477
				c-1.79-1.797-3.644-3.653-5.483-5.463l-0.138-0.138l0.137-0.138c3.619-3.651,7.312-7.345,10.975-10.977l0.138-0.135l0.137,0.134
				c1.835,1.806,3.683,3.654,5.466,5.447c1.789,1.793,3.638,3.647,5.473,5.454l0.135,0.135l-0.134,0.138
				C69.874,33.295,67.787,35.371,65.768,37.38z"/>
		</g>
		<g>
			<path fill="#524640" d="M47.166,32.464c-4.075,4.012-8.076,8.101-12.154,12.111c4.011,4.118,8.078,8.182,12.196,12.193
				c4.007-4.095,8.144-8.061,12.11-12.193C55.242,40.565,51.241,36.476,47.166,32.464z M52.15,50.869
				c-1.583,1.573-3.22,3.2-4.808,4.823l-0.135,0.14l-0.139-0.135c-3.689-3.593-7.383-7.287-10.981-10.981l-0.134-0.138l0.139-0.135
				c1.832-1.806,3.679-3.656,5.464-5.449c1.788-1.793,3.638-3.646,5.473-5.452l0.135-0.134l0.138,0.134
				c1.834,1.804,3.681,3.656,5.468,5.449c1.785,1.794,3.635,3.646,5.469,5.452l0.137,0.135l-0.133,0.138
				C56.244,46.8,54.162,48.867,52.15,50.869z"/>
			<path fill="#524640" d="M52.493,39.266c-1.739-1.746-3.538-3.548-5.327-5.311c-1.789,1.763-3.591,3.568-5.332,5.316
				c-1.742,1.746-3.541,3.55-5.331,5.313c3.508,3.597,7.105,7.193,10.698,10.695c1.545-1.578,3.135-3.159,4.673-4.688
				c1.965-1.955,3.998-3.975,5.954-6.008C56.039,42.82,54.239,41.013,52.493,39.266z M47.25,42.495
				c-0.294,0.484-0.787,1.038-1.19,1.357c-1.808,1.437-5.63,1.258-8.371,0.724c-0.08-0.172,0.252-0.423,0.425-0.596
				c2.941-2.942,6.174-5.961,9.093-8.965c0.034-0.008,0.04,0.017,0.042,0.042C47.946,37.268,48.405,40.594,47.25,42.495z"/>
		</g>
		<path fill="#524640" d="M84.517,41.347c-0.195-0.132-0.314-0.338-0.508-0.467c-0.134,2.098-2.058,3.657-4.165,3.441
			c-1.513-0.156-3.039-1.484-3.059-3.271c-0.026-2.023,1.675-3.527,3.146-4.206c-0.249-0.508-0.967-0.956-1.702-0.681
			c-1.024,0.384-1.697,1.823-2.039,2.847c-0.72-0.142-1.331-0.398-2.04-0.555c0.624-2.278,2.162-4.571,4.717-4.885
			c1.296-0.157,2.178,0.523,2.932,1.276c1.244,1.245,2.532,2.535,3.824,3.826c0.181,0.179,0.764,0.727,0.766,0.765
			c0.005,0.114-0.838,0.878-0.935,0.978C85.061,40.803,84.749,41.05,84.517,41.347z M79.248,40.496
			c0.017,0.904,1.019,1.499,1.829,1.191c0.53-0.203,1.624-1.306,1.357-2.339c-0.051-0.197-0.716-0.956-1.061-1.018
			c-0.034-0.008-0.042,0.042-0.042,0.042C80.514,38.385,79.235,39.745,79.248,40.496z"/>
		<path fill="#524640" d="M20.589,38.571c0,0-2.906,2.799-4.358,4.304c-0.522,0.543-1.329,1.225-1.145,2.293
			c0.161,0.967,1.555,1.958,2.676,1.405c1.047-0.517,2.681-2.452,2.681-2.452l2.844-2.819l2.171,2.113l-8.076,8.043l-2.144-2.135
			c0,0,0.383-0.291,0.527-0.499c-1.995-0.097-4.112-1.909-3.866-4.379c0.215-2.157,2.847-4.29,2.847-4.29l3.698-3.73L20.589,38.571z
			"/>
		<path fill="#524640" d="M72.874,39.305c0.382,0.795,0.992,1.586,1.276,2.339c-1.166,0.092-2.157,0.986-2.081,1.954
			c0.05,0.651,1.179,1.687,1.179,1.687l3.633,3.657l-1.912,1.91l-7.191-7.212l1.869-1.871c0,0,0.309,0.314,0.508,0.424
			C70.289,40.46,71.154,39.455,72.874,39.305z"/>
		<path fill="#524640" d="M29.574,43.385l3.214,1.052c0,0-3.093,3.024-3.639,3.665c2.086,0.22,3.698,1.78,3.528,4.164
			c-0.125,1.733-1.112,2.983-2.295,4.164c-1.264,1.264-2.638,2.452-4.801,2.296c-1.85-0.132-3.241-1.405-3.571-3.483
			c-0.166,0.137-0.464,0.414-0.464,0.414l-2.127-2.115L29.574,43.385z M25.495,51.671c-0.414,0.416-1.078,1.079-1.377,1.484
			c-0.387,0.522,0.441,2.252,1.292,2.47c0.263,0.065,0.524,0.115,0.85,0.041c1.122-0.252,2.588-1.726,3.103-2.846
			c0.729-1.596-0.421-2.873-2.21-2.762c-0.026,0.003-0.05,0.006-0.041,0.042C26.611,50.584,26.124,51.041,25.495,51.671z"/>
		<path fill="#524640" d="M61.4,44.407l2.805,2.761l1.784-1.698l1.793,1.794l-1.751,1.687c0,0,1.794,1.794,2.72,2.721
			c0.292,0.291,0.641,0.725,1.062,0.721c0.764-0.006,1.171-0.974,1.189-1.955c0.578,0.696,1.09,1.462,1.659,2.168
			c-0.383,1.48-1.58,3.142-3.528,2.633c-1.111-0.292-1.855-1.219-2.678-2.042c-0.841-0.841-1.634-1.697-2.337-2.337
			c-0.186,0.125-1.191,1.19-1.191,1.19l-1.784-1.826l1.19-1.148l-1.84-1.837L61.4,44.407z"/>
		<path fill="#524640" d="M65.354,60.508c-0.918-0.852-3.495-3.538-3.998-3.993c-0.416-0.38-1.02-0.933-1.697-0.933
			c-0.893,0-1.827,0.933-1.701,1.954c0.072,0.578,0.621,1.175,1.022,1.572c1.242,1.245,3.866,3.91,3.866,3.91l-1.915,1.827
			l-7.179-7.184l1.871-1.868c0,0,0.306,0.314,0.508,0.425c0.124-1.765,1.622-3.271,3.144-3.443c2.187-0.244,3.399,1.316,4.673,2.591
			c0.755,0.755,3.273,3.2,3.274,3.231C67.226,58.709,65.588,60.212,65.354,60.508z"/>
		<polygon fill="#524640" points="35.167,53.085 37.505,55.425 33.696,62.89 41.158,59.077 43.454,61.373 28.428,68.158 
			26.345,66.034 30.168,64.334 		"/>
		<path fill="#524640" d="M56.429,63.399c-1.406,1.47-2.885,2.867-4.29,4.335c1.376,1.263,3.666,0.022,3.569-1.869
			c0.826-0.068,1.636-0.149,2.466-0.212c0,1.771-0.461,2.689-1.231,3.568c-0.797,0.909-2.095,1.739-3.826,1.617
			c-2.604-0.186-5.289-2.907-5.312-5.694c-0.019-2.221,1.448-4.057,3.656-4.25C53.953,60.672,55.19,62.233,56.429,63.399z
			 M50.14,64.971c0.024,0.545,0.291,0.886,0.553,1.274c0.896-0.761,1.682-1.629,2.508-2.463
			C52.128,62.705,50.074,63.42,50.14,64.971z"/>
		<path fill="#524640" d="M44.617,65.949c-0.31,0.866-0.658,1.694-0.936,2.592c-2.127-0.553-3.815,1.013-3.697,2.932
			c0.133,2.111,2.482,4.492,4.504,4.717c2.283,0.254,3.801-1.578,3.146-3.953c0.887-0.186,1.697-0.452,2.591-0.637
			c0.87,2.507-0.175,4.564-1.573,5.865c-0.986,0.917-2.319,1.564-3.74,1.572c-3.441,0.018-6.484-3.017-7.35-5.737
			c-0.628-1.97-0.092-3.985,0.766-5.184C39.437,66.566,41.862,64.856,44.617,65.949z"/>
	</g>
	<polygon fill="#524640" points="88.188,20.924 83.795,25.308 82.914,24.446 87.308,20.087 	"/>
	<path fill="#524640" d="M86.833,28.406c0.391-0.424,1.627-1.609,1.836-1.839c0.175-0.192,0.43-0.472,0.43-0.783
		c0-0.411-0.43-0.841-0.899-0.781c-0.267,0.032-0.54,0.286-0.724,0.469c-0.572,0.573-1.799,1.781-1.799,1.781l-0.843-0.88
		l3.307-3.305l0.862,0.859c0,0-0.146,0.142-0.198,0.235c0.816,0.056,1.509,0.746,1.587,1.447c0.112,1.007-0.605,1.567-1.194,2.154
		c-0.346,0.346-1.474,1.505-1.486,1.505C87.662,29.269,86.968,28.514,86.833,28.406z"/>
	<path fill="#524640" d="M93.862,30.122c-0.391,0-0.725,0-1.176-0.029c0.054-0.269,0.144-0.508-0.103-0.944
		c-0.184-0.349-0.493-0.495-0.779-0.502c-0.419-0.031-0.907,0.286-1.221,0.771c-0.309,0.485-0.208,1.025,0.184,1.369
		c0.267,0.237,0.723,0.259,1.076,0.24c0.031,0.382,0.017,0.696,0.045,1.079c-0.824,0.037-1.438-0.028-1.943-0.475
		c-0.416-0.366-0.801-0.965-0.741-1.761c0.082-1.198,1.359-2.531,2.639-2.441c0.684,0.047,1.212,0.345,1.715,1.01
		C93.892,28.882,93.947,29.531,93.862,30.122z"/>
	<circle fill="#524640" cx="92.827" cy="33.326" r="0.835"/>
</g>
</svg>
