<?xml version="1.0" encoding="utf-8"?>
<!-- Generator: Adobe Illustrator 17.1.0, SVG Export Plug-In . SVG Version: 6.00 Build 0)  -->
<!DOCTYPE svg PUBLIC "-//W3C//DTD SVG 1.1//EN" "http://www.w3.org/Graphics/SVG/1.1/DTD/svg11.dtd">
<svg version="1.1" id="Capa_1" xmlns="http://www.w3.org/2000/svg" xmlns:xlink="http://www.w3.org/1999/xlink" x="0px" y="0px"
	 viewBox="1467.9 1104.2 2834.6 1635.1" enable-background="new 1467.9 1104.2 2834.6 1635.1" xml:space="preserve">
<g>
	<path fill="#524640" d="M4179.8,1370.9c68.2,0,122.8-54.9,122.8-122.8c0-68.5-54.6-123.4-122.8-123.4
		c-68.5,0-122.8,54.9-122.8,123.4C4057.1,1316,4111.4,1370.9,4179.8,1370.9L4179.8,1370.9z M4179.8,1341.8
		c-53.6,0-93.6-39.1-93.6-93.6c0-55.1,39.9-94.2,93.6-94.2c52.7,0,93.6,39.1,93.6,94.2C4273.4,1302.7,4232.5,1341.8,4179.8,1341.8
		L4179.8,1341.8z M4207.8,1256.5c22.6-1.6,34.7-11.2,34.7-34.7c0-33.8-20.2-39.1-49.6-39.1h-62v127.7h28.5v-54h19.9l28.5,53.9h31
		L4207.8,1256.5L4207.8,1256.5z M4159.4,1237.3v-32.2h27.6c12.4,0,28.8,0,28.8,13c0,16.2-8.1,19.3-22.3,19.3L4159.4,1237.3
		L4159.4,1237.3z"/>
	<path fill="#524640" d="M3603.3,2013.6h-275.8v-240.8h674.1V2447h-240.8V2305c-113.3,88.9-256.3,141.9-411.5,141.9
		c-368.5,0-667.2-298.7-667.2-667.2s298.8-667.2,667.2-667.2c295.3,0,545.7,191.8,633.5,457.6h-359.3
		c-63-82.5-162.5-135.6-274.3-135.6c-190.7,0-345.2,154.5-345.2,345.1c0,190.6,154.5,345.2,345.2,345.2
		C3449.7,2125.1,3540.2,2082.1,3603.3,2013.6L3603.3,2013.6z"/>
	<path fill="#524640" d="M1831,2001.5c7.2,49.8,10.4,80.5,35,109.5c41.8,46.2,114.9,57,203.6,57c134,0,214.1-37.1,214.1-123.2
		c0-47.6-27.9-89.1-73.1-107.6c-36.5-15.3-80-26.1-261.1-63c-160.1-30.7-215.8-49.2-280.3-89.1c-109.5-67.6-168.7-170.6-168.7-295.1
		c0-236.8,215.8-385.8,558.7-385.8c221.1,0,389.9,59.9,483.9,175.2c37.3,43.4,79.1,130.9,86.5,211.3l0.1,9.8h-368.9v-3.3
		c-21.3-98.5-84-139.5-215.4-139.5c-106.2,0-184.5,50.7-184.5,121.5c0,43,26.1,75.4,81.8,98.4c34.8,13.8,34.8,13.8,240.2,50.7
		c132.3,24.6,215.8,50.7,282,87.7c125.3,69.2,188,172.2,188,313.6c0,115.2-41.8,213.7-121.8,282.8
		c-101,86.1-254.2,130.7-457.9,130.7c-147.9,0-294.2-27.7-388.1-75.4c-87.1-43-151.5-109.2-188-196.8c-16.5-34.9-27-88.5-29.1-169.5
		h363V2001.5z"/>
	<path fill="#524640" d="M1616.8,2530.7c-18.9-10.7-45.3-17.5-66.7-17.5c-42.8,0-73.7,28.3-73.7,71.6c0,41.3,22.9,50.4,57.7,60.2
		c11.9,3.5,33.7,8.8,33.7,24.4c0,14.9-13.8,21.5-26.8,21.5c-19,0-35.4-10-49.3-22.1l-23.8,44.8c21.7,15.2,48.1,24.3,74.9,24.3
		c21.5,0,43.9-5.8,60.6-20c17-14.6,22.1-36.3,22.1-57.6c0-34.4-22.9-49.5-52.7-58.2l-14.1-4.3c-9.6-3.1-24.6-8-24.6-20.3
		c0-11.9,13.5-17.8,23.8-17.8c13.5,0,26.6,5.6,36.8,14.1L1616.8,2530.7L1616.8,2530.7z"/>
	<path fill="#524640" d="M1759.1,2511.8c-61.4,0-118.1,45.2-118.1,109.8c0,69,49.6,117.7,118.1,117.7c68.6,0,118.1-48.7,118.1-117.7
		C1877.2,2557,1820.7,2511.8,1759.1,2511.8L1759.1,2511.8z M1759.1,2565.5c33.2,0,60.3,26.9,60.3,56.3c0,36.8-27.1,63.6-60.3,63.6
		c-33.1,0-60.2-26.9-60.2-63.6C1698.9,2592.4,1726.1,2565.5,1759.1,2565.5L1759.1,2565.5z"/>
	<polygon fill="#524640" points="2025.6,2565.8 2025.6,2518.8 1903,2518.8 1903,2732.3 1958.4,2732.3 1958.4,2648.4 2019.2,2648.4 
		2019.2,2601.5 1958.4,2601.5 1958.4,2565.8 	"/>
	<polygon fill="#524640" points="2141.3,2565.8 2187.1,2565.8 2187.1,2518.8 2039.9,2518.8 2039.9,2565.8 2085.8,2565.8 
		2085.8,2732.3 2141.3,2732.3 	"/>
	<polygon fill="#524640" points="2242.6,2518.8 2184.9,2518.8 2248.5,2732.3 2304.8,2732.3 2346.7,2608.5 2347.3,2608.5 
		2384.7,2732.3 2441.3,2732.3 2509.5,2518.8 2451.8,2518.8 2411.5,2656.7 2410.9,2656.7 2369.1,2518.8 2324.9,2518.8 2280.2,2656.7 
		2279.7,2656.7 	"/>
	<path fill="#524640" d="M2631.4,2695.1l13.9,37.1h59.1l-80.3-213.5h-60.7l-82,213.5h58.8l14.7-37.1H2631.4L2631.4,2695.1z
		 M2616.4,2652.7h-46l22.9-67.8h0.6L2616.4,2652.7L2616.4,2652.7z"/>
	<path fill="#524640" d="M2832,2644.8c30.3-5.3,46.7-30.8,46.7-60.3c0-45.6-32-65.7-74.1-65.7h-82.9v213.5h55.5v-82.1h0.6l52.4,82.1
		h69L2832,2644.8L2832,2644.8z M2777.2,2561.2h5.3c18,0,38.5,3.4,38.5,26.6s-20.5,26.6-38.5,26.6h-5.3V2561.2L2777.2,2561.2z"/>
	<polygon fill="#524640" points="3035.5,2565.8 3035.5,2518.8 2914.1,2518.8 2914.1,2732.3 3035.5,2732.3 3035.5,2685.2 
		2969.6,2685.2 2969.6,2648.4 3032.2,2648.4 3032.2,2601.5 2969.6,2601.5 2969.6,2565.8 	"/>
	<path fill="#524640" d="M3269.6,2613v43.6h45.3c-2.4,24.6-20.7,37-44.8,37c-36.5,0-56.4-33.7-56.4-66.7c0-32.6,19-67.3,55.5-67.3
		c22.5,0,38.5,13.5,46.2,33.9l52.7-22c-18.4-39.9-52.4-59.8-96.2-59.8c-68.8,0-115.8,45.6-115.8,114.8
		c0,67.1,46.7,112.7,113.8,112.7c35.7,0,67.1-12.7,88.1-41.9c18.9-26.6,21.2-53.2,21.7-84.3L3269.6,2613L3269.6,2613z"/>
	<path fill="#524640" d="M3534.8,2518.8v112.4c0,27.7-2,57.9-37.7,57.9c-35.7,0-37.6-30.3-37.6-57.9v-112.4H3404v120
		c0,27.4,1.2,54.6,22.4,75.3c17.8,17.5,45.9,23.7,70.8,23.7c24.9,0,53-6.2,70.8-23.7c21.2-20.7,22.3-47.9,22.3-75.3v-120H3534.8
		L3534.8,2518.8z"/>
	<path fill="#524640" d="M3735.7,2644.8c30.3-5.3,46.7-30.8,46.7-60.3c0-45.6-32-65.7-74.3-65.7h-82.9v213.5h55.5v-82.1h0.6
		l52.4,82.1h69L3735.7,2644.8L3735.7,2644.8z M3680.8,2561.2h5.3c18.1,0,38.5,3.4,38.5,26.6s-20.3,26.6-38.5,26.6h-5.3V2561.2
		L3680.8,2561.2z"/>
	<path fill="#524640" d="M3947.3,2518.8v112.4c0,27.7-1.9,57.9-37.6,57.9c-35.7,0-37.6-30.3-37.6-57.9v-112.4h-55.5v120
		c0,27.4,1.2,54.6,22.4,75.3c17.8,17.5,45.9,23.7,70.8,23.7s53-6.2,70.8-23.7c21.2-20.7,22.2-47.9,22.2-75.3v-120H3947.3
		L3947.3,2518.8z"/>
</g>
</svg>
