<?xml version="1.0" encoding="utf-8"?>
<!-- Generator: Adobe Illustrator 17.1.0, SVG Export Plug-In . SVG Version: 6.00 Build 0)  -->
<!DOCTYPE svg PUBLIC "-//W3C//DTD SVG 1.1//EN" "http://www.w3.org/Graphics/SVG/1.1/DTD/svg11.dtd">
<svg version="1.1" id="Capa_1" xmlns="http://www.w3.org/2000/svg" xmlns:xlink="http://www.w3.org/1999/xlink" x="0px" y="0px"
	 viewBox="705.2 2297.6 4110.3 1318.5" enable-background="new 705.2 2297.6 4110.3 1318.5" xml:space="preserve">
<g>
	<path fill="#524640" d="M1604.9,2847.4l-549.8-549.8l-111.2,111.2l206.2,206.2l-444.9,444.8l549.8,549.8l111.2-111.2L1160,3292.1
		L1604.9,2847.4z M951.9,3079.6l330.9-330.9l68.2,68.2L1020,3147.7L951.9,3079.6z"/>
	<g>
		<path fill="#524640" d="M1983.9,2457.3v168.4h183v97.3h-183v379c0,87.2,24.7,136.5,95.8,136.5c34.8,0,55.2-2.9,74.1-8.7l5.8,97.3
			c-24.7,8.7-63.9,17.4-113.2,17.4c-59.6,0-107.5-20.4-138-53.7c-34.8-39.2-49.4-101.6-49.4-184.5V2723h-108.9v-97.3h108.9v-130.7
			L1983.9,2457.3z"/>
		<path fill="#524640" d="M2854.3,2971.3c0,259.9-181.5,373.2-349.9,373.2c-188.8,0-336.9-139.4-336.9-361.6
			c0-233.8,155.4-371.7,348.5-371.7C2717.8,2611.2,2854.3,2757.9,2854.3,2971.3z M2298.2,2978.6c0,153.9,87.1,270.1,212,270.1
			c122,0,213.5-114.7,213.5-273c0-119.1-59.6-268.6-210.6-268.6C2363.5,2707.1,2298.2,2846.5,2298.2,2978.6z"/>
		<path fill="#524640" d="M2917.9,2855.2c0-90-2.9-162.6-5.8-229.4h113.2l7.3,120.5h2.9c50.9-85.7,135.1-135,249.8-135
			c171.3,0,299.1,143.8,299.1,355.8c0,252.7-155.4,377.6-320.9,377.6c-92.9,0-174.3-40.7-216.4-110.4h-2.9v381.9h-126.3V2855.2z
			 M3044.2,3042.5c0,18.9,1.5,36.3,5.8,52.3c23.2,88.6,100.2,149.6,191.7,149.6c135,0,213.4-110.4,213.4-271.5
			c0-139.4-74-259.9-209.1-259.9c-87.2,0-169.9,61-193.2,156.8c-4.4,16-8.7,34.9-8.7,50.8V3042.5z"/>
		<path fill="#524640" d="M3828.4,2457.3v168.4h182.9v97.3h-182.9v379c0,87.2,24.7,136.5,95.8,136.5c34.8,0,55.2-2.9,74-8.7
			l5.8,97.3c-24.7,8.7-63.9,17.4-113.3,17.4c-59.5,0-107.4-20.4-137.9-53.7c-34.9-39.2-49.4-101.6-49.4-184.5V2723h-108.9v-97.3
			h108.9v-130.7L3828.4,2457.3z"/>
		<path fill="#524640" d="M4593,3160.1c0,61,2.9,120.5,10.1,168.4h-114.7l-10.1-88.6h-4.4c-39.3,55.2-114.7,104.6-214.9,104.6
			c-142.3,0-214.9-100.2-214.9-201.9c0-169.9,151-262.8,422.5-261.4v-14.5c0-56.6-16-162.6-159.7-161.2c-66.8,0-135,18.9-184.4,52.3
			l-29-85.7c58-36.3,143.7-61,232.3-61c214.9,0,267.2,146.7,267.2,286.1V3160.1z M4469.6,2969.9c-139.4-2.9-297.7,21.8-297.7,158.3
			c0,84.2,55.1,122,119.1,122c92.9,0,152.5-58.1,172.8-117.6c4.4-14.5,5.8-29.1,5.8-40.7V2969.9z"/>
		<path fill="#524640" d="M4687.7,2297.6h127.8v1031h-127.8V2297.6z"/>
	</g>
</g>
</svg>
