<?xml version="1.0" encoding="utf-8"?>
<!-- Generator: Adobe Illustrator 17.1.0, SVG Export Plug-In . SVG Version: 6.00 Build 0)  -->
<!DOCTYPE svg PUBLIC "-//W3C//DTD SVG 1.1//EN" "http://www.w3.org/Graphics/SVG/1.1/DTD/svg11.dtd">
<svg version="1.1" id="Layer_1" xmlns="http://www.w3.org/2000/svg" xmlns:xlink="http://www.w3.org/1999/xlink" x="0px" y="0px"
	 viewBox="0 0 4656 1080" enable-background="new 0 0 4656 1080" xml:space="preserve">
<path fill="#E1E0D3" d="M626.6,928.9c-5.2,0.8-10.3,1.4-15.5,1.8c-3.3,0.2-6.8,0.5-10,0.5l-1.2,0c4-8.9,7-15.8,9.3-21.1
	C614,915.4,619.9,921.9,626.6,928.9"/>
<path fill="#BBBBBB" d="M447.1,482.7c-14.4,10.1-30.7,23-46.5,38.7c-40.4,4-75.7,8.9-104.7,13.6
	C340.6,514.6,391.6,495.6,447.1,482.7"/>
<path fill="#53453E" d="M796.8,652.2c-14-6.8-29.4,1.8-57.4,2.3c-20.8,0.7-38.4,1-39.5-31.8c-1.2-32.8,12.2-59.9,33-60.6
	c20.8-0.7,39.9,25.2,42.4,57.9c0.7,9-0.3,15.6-2.5,20.4C792.2,638.2,796.6,651.4,796.8,652.2 M731.3,604.2c5.9-0.1,10.6-5,10.5-10.9
	c-0.1-5.9-5-10.6-10.9-10.5c-5.9,0.1-10.6,4.9-10.5,10.9C720.6,599.6,725.4,604.3,731.3,604.2z"/>
<path fill="#534741" d="M464.9,629.2c0.3,32.8-17,30.8-37.9,31c-2.1,0-4.1,0.1-6.1,0.1c-2.3,0-4.6,0.1-6.8,0
	c-20.2,0-33.2-0.9-44.6,5.2c0.3-0.7,5.3-11.9,23.5-16.5c-2-4.4-3.3-10.6-3.6-19.1c-1.3-32.7,18.9-59.6,39.8-59.8
	C450,570,464.6,596.5,464.9,629.2 M432.7,612.1c5.9-0.2,10.5-5.1,10.4-10.9c-0.2-5.9-5.1-10.5-10.9-10.4
	c-5.9,0.2-10.5,5.1-10.4,10.9C421.9,607.6,426.8,612.2,432.7,612.1z"/>
<path fill="#534741" d="M875.3,414.8c13.4,4.4,26.8,9,39,16.2c-6.5-2.6-13.3-4.4-20-6.1c-6.8-1.7-13.6-3.2-20.4-4.5
	c-13.7-2.6-27.4-4.8-41.3-6.4c-13.8-1.8-27.6-3.3-41.5-4.5c-13.9-1.2-27.7-2.3-41.6-3.2c-55.6-3.4-111.3-4.3-167.1-4.3
	c-55.8,0-111.5,1.1-167.1,4.4c-13.9,0.8-27.8,2-41.6,3.2c-13.9,1.2-27.7,2.7-41.5,4.5c-13.8,1.7-27.6,3.9-41.3,6.4
	c-6.8,1.3-13.6,2.8-20.4,4.5c-6.7,1.7-13.5,3.5-20,6.1c12.2-7.1,25.6-11.8,39.1-16.2c1.1-0.4,2.3-0.7,3.4-1l-0.2-0.9
	c-0.2-1.5-5.2-38.2,3.5-90.5c0.4-2.5,2.2-4.5,4.7-5.2l14.2-4c3.1-109.9,48.3-161.6,49.7-163.2c-40.4,65.1-40.1,142.2-39.4,160.2
	l88-25l0.2,0l1.1-0.2l0.4,0l1.4,0.1l0.3,0.1l1.1,0.4l0.4,0.2l0.9,0.5l0.2,0.2l0.2,0.2l0.3,0.2c0.1,0.1,2.4,2.4,6.1,5.9
	c-0.9-29,0.5-112.2,40.1-181.2c-0.8,2.4-32.3,94.4-21.4,197.4c3.5,2.8,7.2,5.6,10.8,8c1.7,1.2,2.8,3.2,2.8,5.3
	c0,0.3,0.8,33.2,15.3,61.1l0.5,1.3c36.1-2.5,72.3-3.5,108.4-3.5c36.1,0,72.3,1.1,108.3,3.6l0.5-1.4c14.5-27.9,15.3-60.8,15.3-61.1
	c0-2.1,1.1-4.1,2.9-5.3c3.6-2.4,7.2-5.2,10.8-8c10.9-103-20.6-195-21.4-197.4c39.6,69,41,152.2,40.1,181.2c3.7-3.5,6.1-5.8,6.1-5.9
	l0.3-0.2l0.2-0.2l0.2-0.2l0.9-0.6l0.4-0.2l1.2-0.4l0.2-0.1l1.4-0.1l0.3,0l1.1,0.2l0.2,0l88.1,25c0.7-18,1.1-95.1-39.4-160.2
	c1.4,1.6,46.7,53.3,49.7,163.2l14.2,4c2.4,0.7,4.3,2.7,4.7,5.2c8.6,52.4,3.6,89,3.4,90.5l-0.2,0.9
	C873,414.1,874.1,414.4,875.3,414.8 M859.3,410.1c0.7-5.9,3.8-37.9-2.9-81.6l-99.7-28.3c0.9,16.9,1.3,53.5-8.3,88.4l-0.5,1.3
	c1,0.1,2,0.2,2.9,0.3c28,3.2,55.9,7.7,83.5,13.7C842.7,405.8,851,407.8,859.3,410.1z M735.9,385.1c8.2-29.9,8.6-61.8,8-79.4
	c-6.6,6-15.5,13.6-24.5,20c-0.6,9.2-3.1,35.3-14.8,59.9c10.4,0.8,20.9,1.8,31.3,2.9C735.6,387.4,735.5,386.2,735.9,385.1z
	 M460.1,385.6c-11.7-24.5-14.3-50.6-14.8-59.8c-9-6.4-17.9-14.1-24.5-20c-0.6,17.6-0.2,49.6,8,79.4c0.3,1.2,0.3,2.3,0,3.4
	C439.2,387.3,449.7,386.4,460.1,385.6z M416.7,389.7l-0.5-1.2c-9.6-34.9-9.2-71.5-8.3-88.4l-99.6,28.3c-6.7,43.6-3.6,75.7-2.9,81.6
	c8.3-2.2,16.6-4.3,24.9-6.2c13.8-3.1,27.7-5.6,41.6-8c13.9-2.3,27.9-4.1,41.9-5.8C414.8,390,415.7,389.9,416.7,389.7z"/>
<path fill="#B4B2B2" d="M322.9,769.9c-1.4,0-2.7-0.4-3.9-1.2l-7.7-5.3l-23-16.1v0l-9.3-6.5c0.7,2.1,1.4,4.1,2.1,6.2l0,0
	c0.7,2,3.5,10.1,8.6,22.1c-9.1-5.5-15.9-10-15.9-10l-6.7-24l1.1-7.9l51.1,27.5l2.6-0.4l2.4,1.7l38.6-8.6l158.4-26.7
	c0,0,0.3,2.2-0.4,5.3l-196.6,43.8L322.9,769.9"/>
<polyline fill="#8D8C8B" points="324.3,755.9 321.9,754.2 362.9,747.3 324.3,755.9 "/>
<path fill="#534741" d="M687.3,216.7V134H481.1v82.7h58.6v-24.2h13.2v111.6h-19.9v62.4h102.5v-62.4h-20V192.5h13.2v24.2H687.3z
	 M597.9,174.9v146.8h19.9v27.2h-67.3v-27.2h19.9V174.9H522v24.2h-23.4v-47.5h145.5h25.5v47.5h-23.4v-24.2H597.9z"/>
<path fill="#B4B2B2" d="M847.4,750.1c-0.3,0-0.5,0-0.8,0l-197.9-22.5l-0.4,3.1l0.4-3.1l-2.9-0.3c-2.9-5-2.5-9.5-2.5-9.5l203.3,25.2
	l53.6-32l-0.8,3.6l-0.3,0.2l0.1,0.8l-7,29.9c0,0-2,1.5-5.4,3.8c2-5.8,4-11.7,5.9-17.8c1.3-4.6,2.5-9.3,3.6-14.1l-6.8,4.8l-18.4,12.9
	l-19.9,13.9C850.2,749.6,848.8,750.1,847.4,750.1"/>
<path fill="#B0AEAE" d="M648.4,730.6c-1.1-1.1-1.9-2.3-2.6-3.4l2.9,0.3L648.4,730.6"/>
<path fill="#B4B2B2" d="M220.6,746.8l-12.3-7.3l-10.9-47.2c0,0,3.1,6.1,8.7,12.5c4.9,17.3,10.3,31.9,14.1,35.7
	c1.9,0.3,4.3,0.5,7,0.5c10.6,0,25.8-2.4,34.1-4.8c-1-3.4-2.1-6.8-3-10.2l-12.4-8.7c0.3-0.1,0.6-0.3,0.9-0.4l21.8,8l-0.3,2.1
	l-3.9-2.1l2.8,10l-0.8,6L220.6,746.8"/>
<polyline fill="#898585" points="267.2,735.1 264.4,725.1 268.3,727.2 267.2,735.1 "/>
<path fill="#B4B2B2" d="M591.4,998.6c-58.8,0-98.4-20-98.4-20l38.8-7.4c4.8,1.3,9.6,2.4,14.5,3.2c-12.4,4.1-22.1,5.3-23,5.4
	c-2,0.2-3.6,0.5-5.8,0.9c21.6,5.9,43.5,9.1,65.3,9.1c4.9,0,9.8-0.2,14.7-0.5c26.7-1.8,61.3-7.6,98.1-22.5c-8.3-0.6-16.2-2.3-23.8-5
	c11.8-3.6,19-6.4,19-6.4l40.7,2.8C680.2,989.4,631.4,998.6,591.4,998.6"/>
<g opacity="0.3">
	<g>
		<path fill="#53453E" d="M683.3,464.7c-1.5,2-3.3,4.2-5.1,6.5c-9.4,11.9-22.4,27.1-37.9,41.9c-17.9-0.6-36.4-0.9-55.4-0.9
			c-31.4,0-61.5,0.8-90,2.2c40.4-16.7,88.9-33.1,141.4-42.9C651.7,468.6,667.4,466.3,683.3,464.7"/>
		<path fill="#53453E" d="M961.6,494l-14.5,54.8c-29.6-6.5-94.5-19.3-182.9-27.9c28.9-12.3,58.3-27.8,85.1-47.1
			C902,481.3,940.6,489.3,961.6,494"/>
		<path fill="#53453E" d="M305.6,406.8c0,0,3.2-42.2,9.9-58.4c3.4-8.3,24.3-13.6,40.2-17.4c15.9-3.8,41.3-11.4,46.3,11
			c4.9,22.4,12.9,38.7,18.2,45.9l-6.8-92.1l-109.6,26.5l-7.2,81.5l3.4,6.4L305.6,406.8"/>
		<path fill="#53453E" d="M860.1,406.8c0,0-3.2-42.2-9.9-58.4c-3.4-8.3-24.3-13.6-40.2-17.4c-15.9-3.8-41.3-11.4-46.3,11
			c-4.9,22.4-12.9,38.7-18.2,45.9l6.8-92.1L862,322.2l7.2,81.5l-3.4,6.4L860.1,406.8"/>
		<path fill="#53453E" d="M705.2,131.1c0,0-2.9,220.9-54.5,220.9c-51.6,0-61.9,0-61.9,0h-10.3c0,0-10.3,0-61.9,0
			c-51.6,0-55.8-220.8-55.8-220.8l-25.4,75l0.4,102.9l18,14.3l8.2,44.2l11.4,25.8l220.9,0.4l10.2-18.4l8.6-31.1l1.2-19.6l24.4-69.6
			L705.2,131.1"/>
		<path fill="#53453E" d="M297,337.1c0,0-10.6,76.2-38.7,89.9c-28.1,13.7,0,0,0,0l39.3-11.9L297,337.1"/>
		<path fill="#53453E" d="M208.5,494c8.6-1.9,20.1-4.4,34.2-7.1c-8.7,5.9-19,13.4-30.2,22.3L208.5,494"/>
		<g>
			<path fill="#53453E" d="M940.8,566.2l-16.4,115l-78.7,55.2L640.3,713l-30.9-101.8c-0.7-2.5-2.8-4.3-5.4-4.7
				c-7.6-1.2-14.3-1.9-19.9-1.9c-5.6,0-12.3,0.6-20,1.9c-2.5,0.4-4.6,2.2-5.4,4.7l-30.2,99.3l-204.2,45.4l-80.9-56.7l-15.9-129.1
				c3.5-2,7-3.9,10.6-5.9c5-1.1,10.6-2.2,16.9-3.4l15,121.8c0.2,1.9,1.3,3.6,2.8,4.7l55.7,39c1.2,0.8,2.5,1.2,3.9,1.2l1.5-0.2
				l167.9-37.4l1.7-0.6c1.6-0.8,2.8-2.3,3.3-4l30.2-99.5c8.1-2.1,28.9-6.9,47.1-6.9c18.2,0,39,4.8,47.1,6.9l30.2,99.5
				c0.8,2.6,3,4.4,5.7,4.7L835,709.3c1.6,0.2,3.3-0.2,4.6-1.2l55.7-39c1.5-1.1,2.5-2.8,2.8-4.6l14.9-104
				C924.1,562.6,933.5,564.6,940.8,566.2"/>
			<path fill="#53453E" d="M471,454c0,0-181.4,15-334.8,153.4l7.1-0.7c0,0,181-120,324.4-134.6L471,454"/>
			<path fill="#53453E" d="M418.4,532.1c0,0,88.4-69.6,250.3-89.7l-43.6,27.3C625.1,469.6,482.1,502.1,418.4,532.1"/>
			<path fill="#53453E" d="M631,543.1c0,0,120.3-35.7,169.1-84.5l41,7.8C841,466.4,715.5,543.1,631,543.1"/>
			<path fill="#53453E" d="M330.4,787.7c-0.6,0-1.1,0-1.5-0.1c-9.1-1.3-26.3-10.8-39.1-18.5c-5.1-12-7.9-20.2-8.6-22.1l0,0
				c-0.7-2-1.5-4.1-2.1-6.2l9.3,6.5v0l23,16.1l7.7,5.3c1.1,0.8,2.5,1.2,3.9,1.2l1.5-0.2L520.9,726c-1.2,5.1-5.4,12.5-18.7,16.6
				C481.3,749,351.6,787.7,330.4,787.7"/>
			<path fill="#53453E" d="M836.2,776.4c-23.8,0-151.8-32.2-172.7-37.6c-7.4-1.9-12.1-5-15.1-8.2l0.4-3.1L846.7,750
				c0.3,0,0.5,0,0.8,0c1.4,0,2.7-0.4,3.9-1.2l19.9-13.9l18.4-12.9l6.8-4.8c-1.1,4.7-2.4,9.4-3.6,14.1c-1.9,6.1-3.9,12-5.9,17.8
				c-11.1,7.8-36.4,24.8-48.3,27.1C837.9,776.3,837.1,776.4,836.2,776.4"/>
			<path fill="#53453E" d="M227.2,741.1c-2.7,0-5.1-0.2-7-0.5c-3.8-3.8-9.2-18.4-14.1-35.7c6.3,7.2,15.9,14.9,28,14.9
				c3.7,0,7.6-0.7,11.8-2.4l12.4,8.7c1,3.4,2,6.8,3,10.2C253,738.8,237.8,741.1,227.2,741.1"/>
			<path fill="#53453E" d="M582.9,990c-21.8,0-43.7-3.2-65.3-9.1c2.2-0.4,3.8-0.7,5.8-0.9c1-0.1,10.6-1.4,23-5.4
				c10.7,1.8,21.7,2.6,32.6,2.6c36.6,0,72-8.8,92.9-15.1c7.6,2.7,15.6,4.4,23.8,5c-36.8,14.9-71.4,20.7-98.1,22.5
				C592.7,989.8,587.8,990,582.9,990"/>
			<path fill="#53453E" d="M896.3,818.1c0,0-3,11.9-10.9,26.5l0-0.1c-7.1,11.8-15.8,22.6-26,31.3c-5.1,4.4-10.6,8.1-16.5,10.9
				c-5.8,2.8-12.3,4.4-18.9,6.2c-13.1,3.3-26.3,6.4-39.5,9.2c-13.2,2.9-26.4,5.6-39.8,8.2c-13.3,2.7-26.6,5.1-39.9,7.1
				c-6.7,1-13.3,2-19.9,2.4c-1.6,0.1-3.3,0.2-4.8,0.1c-0.7,0-1.5-0.1-2.1-0.2l-1-0.2l-1-0.3c-2.9-0.9-5.9-2.5-8.8-4
				c-11.6-6.5-22.9-14.3-34-22.1c-8.6-6.1-17.6-13-26.2-19.5l-0.8,1.1l1.7,1.5c-3.6-2.7-5.8-4.4-5.8-4.4s-0.6,0.8-1.7,2.2l-0.8-0.7
				c-7.2,8-13.5,16.3-21,24c-4.4,4.7-8.8,9.3-13.3,13.8c-4.5,4.5-9.1,9-13.8,13c-2.3,2-4.9,4.1-7.1,5.1c-2.4,1-5.5,1.8-8.5,2.5
				c-6.1,1.4-12.3,2.4-18.6,3.3c-12.5,1.9-25.2,3.6-37.8,4.9c-12.7,1.5-25.3,2.8-38,3.9c-12.7,1.2-25.4,2.2-38,2.9
				c-3.2,0.1-6.3,0.2-9.5,0.2c-3.1,0-6.1-0.2-9.1-0.8c-6-1-11.9-3-17.6-5.7c-11.3-5.3-21.7-13-31-21.8c1.3,1.6,2.6,3,4,4.5
				c-1.4-1.3-2.6-2.5-3.4-3.4c-6.1-6.6-78.6-69-78.6-69l24.9,60.9c0,0,56.3,60.3,87.7,67.4c31.4,7.1,88.2-0.5,130.8-7.1
				c42.6-6.6,76.6-21.8,90.2-46.6c13.7-24.9,15.7-32,15.7-32s40.6,57.3,75.5,63.9c35,6.6,138.9-28.9,138.9-28.9s63.4-17.2,74.5-39
				c11.2-21.8,40.6-93.3,40.6-93.3L896.3,818.1"/>
		</g>
	</g>
	<path fill="#53453E" d="M453.7,482.7l-42.5,47.2l-132.1,12.7C332.8,511.1,389.5,487.1,453.7,482.7z"/>
</g>
<g>
	<path fill="#534741" d="M1030.4,401.3c-0.3-7.1-1-14.1-2-21.1c-0.5-3.5-1-7-1.7-10.5c-0.7-3.6-1.4-6.9-2.5-10.8l-0.8-2.7l-2-1.5
		c-11.1-8.8-23.2-15.4-35.4-21.2c-10.1-4.8-20.3-8.9-30.7-12.7c-28.8-80.1-78.5-151.1-143.7-200.6c-67.4-51.2-146.7-78.2-229.3-78.2
		S420.5,68.8,353,120c-65.2,49.5-114.8,120.5-143.7,200.6c-10.3,3.8-20.6,8-30.7,12.7c-12.2,5.9-24.2,12.5-35.4,21.2l-2,1.5
		l-0.8,2.7c-1.1,3.9-1.8,7.2-2.5,10.8c-0.7,3.5-1.2,7-1.7,10.5c-1,7-1.7,14.1-2,21.1c-0.7,14.2-0.3,28.3,1.3,42.4
		c1.5,14.1,4.1,28,7.9,41.8c1.9,6.9,4.2,13.7,6.8,20.4c1.3,3.4,2.7,6.7,4.3,10.1c0.8,1.7,1.6,3.3,2.5,5l1.4,2.5
		c0.5,0.9,0.9,1.6,1.7,2.8l1.4,2.2l2.2,1.2c2.4,1.2,4.4,2.2,6.5,3.2l6.3,2.8c1.2,0.5,2.3,1,3.5,1.4c-28.6,26.5-59.7,60.8-86.6,103.4
		l-34,53.6l47.7-41.9c0.8-0.7,40.8-35.4,107.6-74.6l0.9,7.7c-4.4,2.3-25.4,13.3-31.6,18.5c-10.3,8.6-10.8,21.9-8.1,46.8
		c1.4,12.7,6.2,37.5,12.6,60.2c11.1,39.1,19.2,45.9,26.4,47.6c3.2,0.8,7.4,1.1,12.1,1.1c12.8,0,29.2-2.5,39.8-5.7
		c12.5,39,30.3,74.2,51.9,105.1c-1,0.3-2.1,0.6-3.1,0.9c-13-6-58.5-27.1-73.8-34l-32-14.4l18.9,29.5c1.4,2.1,34,53,60.7,87.3
		c24.9,32,59.1,64.7,123.5,64.7c7.7,0,15.8-0.5,24.2-1.4c19.2-2.2,33.7-3.9,44.6-5.3c67.6,24.9,142.2,26.4,212.9-0.4
		c19.3-7.3,37-16.3,53.2-26.3l1-0.2c26.3-6.3,56.2-13.5,70.9-17.6c2.4-0.7,5.3-1.3,8.4-2.1c20.6-4.7,54.9-12.7,73.2-49.3
		c18.4-37,48.5-93.6,48.9-94.1l14-26.4L937,781.6c-1.5,0.7-36.2,15.8-54.2,25.2c-0.7,0.4-1.4,0.7-2.1,1c14.6-29.9,22-53.8,24.6-62.9
		c10.1,2.4,25.1,2.1,36.1,2.1c5.4,0,11-0.9,14.6-1.9c7.1-1.8,12.7-6.6,23.1-46.9c6-23.4,10.4-48.9,11.6-62
		c2.3-25.5,1.6-39.2-8.9-47.8c-5.2-4.3-20.4-12.5-28.1-16.5l0.4-2.8c3.9,1,6.1,1.5,6.2,1.5l7-26.7c2.5-1,5.1-2.1,8.1-3.3
		c4.3-1.7,8.5-3.4,12.7-5.2l6.3-2.8c2.2-1,4.1-1.9,6.5-3.2l2.2-1.2l1.4-2.2c0.8-1.2,1.2-1.9,1.7-2.8l1.4-2.5c0.9-1.7,1.8-3.3,2.5-5
		c1.6-3.3,3-6.7,4.3-10.1c2.6-6.7,4.9-13.5,6.8-20.4c3.7-13.8,6.4-27.7,7.9-41.8C1030.7,429.6,1031.1,415.5,1030.4,401.3z
		 M145.4,600.3c55.9-66.8,137.3-117.9,158.5-130.6c2.3-0.3,4.6-0.6,6.9-0.8c8.1-0.9,16.2-1.5,24.3-2.2c16.3-1.2,32.5-2.3,48.9-3.2
		c28.1-1.6,56.3-2.9,84.5-3.9c-19.6,3.8-38.8,8.4-57.4,13.6C294.3,505.8,199.7,562.5,145.4,600.3z M208.5,494
		c8.6-1.9,20.1-4.4,34.2-7.1c-8.7,5.9-19,13.4-30.2,22.3L208.5,494z M381.9,541.8c-5,5.9-9.8,12.2-14.4,18.7L340,600.1l40.2-26.8
		c0.6-0.4,26.2-17.3,68-37.7c41.7-3.1,87.7-5.2,136.9-5.2c12,0,23.8,0.2,35.3,0.3c-8.1,6.5-16.6,12.7-25.5,18l-29.6,17.9
		c-18.6,2.3-34.7,6.9-35.6,7.1l-1.5,0.7c-1.4,0.8-2.5,2.2-3,3.8l-30.2,99.4l-161.2,35.8L283,678l-14.8-119.6
		C297,553.1,335.6,547,381.9,541.8z M295.9,535.1c44.7-20.6,95.7-39.5,151.2-52.3c-14.4,10.1-30.7,23-46.5,38.7
		C360.2,525.5,325,530.4,295.9,535.1z M600.2,565.8c3.3-0.2,58.9-7,125.1-29.9c73.4,5.6,133.4,14.7,174.3,22.1l-14.5,101.7
		L834,695.6L673,677.3l-30-98.9c-0.7-2.2-2.4-3.9-4.6-4.5c-1-0.3-20.9-6-42.1-7.8L600.2,565.8z M634.9,542.6
		c30.6-25.3,54.5-55.2,66.6-71.5c3.8-5.1,6.4-8.9,7.6-10.8c22.1,0.9,44.3,2,66.4,3.2c16,0.9,31.8,2,47.7,3.2l0.2,0
		c-1.6,1.1-3.2,2.3-4.9,3.5C753.4,515.6,678.2,534.8,634.9,542.6z M678.2,471.2c-9.4,11.9-22.4,27.1-37.8,41.9
		c-17.9-0.5-36.4-0.9-55.4-0.9c-31.4,0-61.4,0.8-90,2.2c40.4-16.7,88.9-33.1,141.4-42.9c15.3-2.9,31-5.2,47-6.8
		C681.8,466.7,680.1,468.9,678.2,471.2z M558.8,472c-58.3,18-107.9,41.1-141.6,58.8c37.6-36,77.6-56.1,82.2-58.4l0.4-0.2l30.4-14.4
		c16.5-0.3,33-0.5,49.5-0.5h0c11.2,0,22.5,0.1,33.7,0.3C594.5,461.8,576.2,466.7,558.8,472z M220.2,740.6c-7.9-8-22.7-63-26-92.2
		c-2.6-23.7-0.8-28.8,1.6-30.8c2.8-2.3,13.3-8.3,22.3-13.1l12.2,99.3c0.3,1.9,1.3,3.6,2.8,4.7l25.1,17.5c1,3.4,2,6.8,3,10.2
		C250.9,739.4,229.7,742.3,220.2,740.6z M597.6,989.4c-26.6,1.8-53.6-1.3-80-8.6c2.2-0.4,3.8-0.7,5.8-0.9
		c2.2-0.3,49.6-6.5,70.9-38.2l2,0l5.3,0c3.5,0,6.8-0.3,10.2-0.4c8.1-0.7,15.9-1.9,23.7-3.4c0.8,0.8,1.6,1.6,2.4,2.5
		c16,15.9,35.9,25,57.8,26.6C658.9,981.9,624.3,987.7,597.6,989.4z M600,931.3c4-8.9,7-15.8,9.3-21.1c4.7,5.3,10.6,11.7,17.3,18.7
		l-25.5,2.4H600z M892.5,825.3c6.7-3.5,16.2-8.1,25.3-12.2c-10.4,19.9-24.5,46.9-34.9,67.8c-13.9,27.8-40.1,33.9-59.2,38.3
		c-3.3,0.8-6.5,1.5-9.4,2.3c-14.4,4-44,11.1-70.1,17.4c-7.2,1.7-14.3,3.4-20.8,5c-7,1.7-14,2.5-20.6,2.5c-19.4,0-36.2-7-50.2-20.9
		c-21-20.8-38.2-41.3-38.4-41.5l-7.7-9.2l0.8-1.1c-1.5-1.1-3-2.3-4.4-3.3l-0.1-0.1l0,0c-1,1-1.9,2.1-2.8,3.1l1.3,1.2l-4.7,12.5
		c-0.1,0.3-2.8,7.4-16.1,37.2c-12.9,29-59,34.9-59.4,35c-2.7,0.3-4.8,0.7-7.4,1.1c-7.8,1.4-22.3,3.9-78.5,10.3
		c-7.6,0.8-14.9,1.3-21.9,1.3c-55.3,0-84.1-27.2-107-56.7c-13.1-16.8-28-38.3-39.6-55.5c21.4,9.8,43.8,20.2,44.2,20.4l3.5,1.6
		l3.7-1.1c57.3-16.4,111.4-33.9,111.9-34l3.6-1.2l2-3.2c31.4-49.7,56-61.3,60.3-61.6c3.5-0.2,7-0.3,10.6-0.3
		c43.7,0,80.2,13.5,80.5,13.7l3.3,1.3l3.4-1.1c55.6-17.2,80.9-25.1,89.7-25.1c1.7,0,1.7,0,4.6,2.5c0.9,0.7,1.9,1.6,3,2.5
		c27.2,21.4,60.9,48.2,61.2,48.5l2.3,1.9l2.9,0.3c0.4,0,38.8,4.6,61.5,6.7c11.4,1,21.6,1.9,32.1,1.9
		C868.5,833.4,882.1,830.7,892.5,825.3z M892.7,731.3c-9.5,30.3-20.6,57.2-33.1,80.9c-2.7,0.2-5.6,0.3-8.7,0.3
		c-9.6,0-19.4-0.8-30.2-1.8c-18.8-1.7-48.6-5.1-58-6.2c-8.1-6.5-35.9-28.5-59-46.7c-0.9-0.7-1.7-1.4-2.5-2c-4-3.5-8.7-7.4-18-7.4
		c-8.5,0-20.9,3.1-50.9,12.2c15.6-11.7,15.7-26.7,15.7-26.7s-22.2,20.6-58.1,25.3c-35.8,4.6-64-17.4-64-17.4
		c1.2,3.8,2.8,12.5,11,19.8c-9.5-1.1-19.9-1.9-30.6-1.9c-3.9,0-7.9,0.1-11.7,0.3c-22.1,1.2-53.1,34.5-74.9,68.1
		c-10.7,3.4-44.1,14-82.8,25.4c-36.1-50.1-53.9-101.2-55.7-106.5l0,0c-0.7-2-1.5-4.1-2.1-6.2l9.3,6.5v0l23,16.1l7.7,5.3
		c1.2,0.8,2.5,1.2,3.9,1.2l1.5-0.2l210.9-47c2.4-0.5,4.3-2.3,5-4.6l30.1-99c5.2-0.7,9.7-1.1,13.7-1.1c3.9,0,8.5,0.4,13.7,1.1l31,102
		c0.8,2.6,3,4.4,5.7,4.7l14.4,1.6L846.7,750c1.6,0.2,3.3-0.2,4.6-1.2l19.9-13.9l18.4-12.9l6.8-4.8C895.2,722,894,726.7,892.7,731.3z
		 M845.6,736.3L640.3,713l-30.9-101.8c-0.7-2.5-2.8-4.3-5.4-4.7c-7.6-1.2-14.3-1.9-19.9-1.9c-5.7,0-12.3,0.6-20,1.9
		c-2.5,0.4-4.6,2.2-5.4,4.7l-30.1,99.3l-204.2,45.4l-80.9-56.7l-15.9-129c3.5-2,7-3.9,10.6-5.9c5-1,10.7-2.2,16.9-3.4l15,121.8
		c0.2,1.9,1.3,3.6,2.8,4.7l55.7,39c1.1,0.8,2.5,1.2,3.8,1.2l1.5-0.2l167.9-37.4l1.7-0.6c1.6-0.8,2.8-2.3,3.3-4l30.3-99.6
		c8.1-2.1,28.9-6.9,47.1-6.9c18.2,0,39,4.8,47.1,6.9l30.2,99.6c0.8,2.6,3,4.4,5.7,4.7L835,709.3c1.6,0.2,3.3-0.3,4.6-1.2l55.7-39
		c1.5-1.1,2.5-2.8,2.8-4.6l14.9-104c11.2,2.1,20.5,4.1,27.8,5.7l-16.4,115L845.6,736.3z M969.9,602.8c2.5,2,4.4,7.3,2.2,31.8
		c-2.7,30.1-15.3,82.8-23.2,91.3c-8.6,1.7-26.7-0.3-37.8-2.9c1.9-7.6,2.4-11.2,4-19l19.3-13.5c1.5-1.1,2.6-2.7,2.8-4.6l13.5-94.5
		C959,595.9,967.5,600.7,969.9,602.8z M947.1,548.9c-29.5-6.5-94.5-19.3-182.9-27.9c28.9-12.3,58.3-27.8,85.1-47.1
		c52.6,7.4,91.2,15.4,112.2,20.1L947.1,548.9z M1008.9,441.3c-1.8,13.1-4.2,26.1-7.7,38.6c-1.7,6.3-3.7,12.5-6,18.5
		c-1.2,3-2.4,6-3.7,8.8c-0.7,1.4-1.3,2.8-2,4.2l-0.8,1.6c-1,0.5-2,1-2.9,1.5l-5.9,2.8c-2.1,1-4.2,1.9-6.3,2.8l10.4-39.4
		c-2.4-0.7-25.1-6.5-64-13.8c1.2-0.3,2.4-0.5,3.6-0.8c8.1-2,16.1-4.5,23.8-7.6c3.8-1.6,7.6-3.4,11.2-5.4c3.6-2.1,7.1-4.4,9.9-7.5
		c-39,12.8-119.7,7-191.4-0.4c-65.5-6.8-131.3-11.1-197.3-11.3c-66,0.2-131.7,4.5-197.3,11.3c-71.7,7.4-152.3,13.2-191.3,0.4
		c2.7,3.1,6.3,5.5,9.9,7.5c3.6,2,7.4,3.8,11.2,5.4c7.7,3.1,15.7,5.6,23.8,7.6c2.8,0.7,5.8,1.3,8.6,1.8
		c-35.5,6.8-56.1,12.1-58.4,12.7L197,522l-0.6,0.6c-3.7-1.7-8.2-3.8-11.5-5.3l-5.9-2.8c-1-0.5-2-1-2.9-1.5l-0.8-1.6
		c-0.7-1.4-1.4-2.8-2-4.2c-1.3-2.9-2.6-5.8-3.7-8.8c-2.3-6-4.3-12.2-6-18.5c-3.5-12.5-5.9-25.5-7.7-38.6c-1.7-13-2.6-26.2-2.4-39.4
		c0.1-6.6,0.3-13.2,0.9-19.7c0.3-3.3,0.6-6.5,1-9.7c0.3-2.3,0.7-4.7,1-6.9c8.7-7.3,18.6-13.9,28.9-19.8
		c11.2-6.5,22.9-12.3,34.7-17.8c11.9-5.6,24-10.7,36.2-15.6c6.1-2.5,12.3-4.9,18.4-7.2c6.2-2.4,12.4-4.6,18.7-6.9
		c-13.1,2.2-26.1,5.1-39,8.4c-8.3,2.2-16.7,4.6-24.9,7.2c58.8-153.8,199.4-253.9,353-253.9c153.5,0,294.2,100.1,353,253.9
		c-8.2-2.6-16.6-5-25-7.2c-12.8-3.3-25.8-6.3-38.9-8.4c6.2,2.3,12.5,4.5,18.6,6.9c6.2,2.3,12.3,4.7,18.5,7.2
		c12.2,4.9,24.4,10,36.2,15.6c11.9,5.4,23.6,11.3,34.8,17.8c10.3,5.9,20.2,12.5,28.9,19.8c0.4,2.2,0.8,4.6,1,6.9
		c0.4,3.2,0.8,6.5,1,9.7c0.6,6.5,0.8,13.1,0.9,19.7C1011.5,415.1,1010.6,428.2,1008.9,441.3z"/>
</g>
<g opacity="0.5">
	<path fill="#53453E" d="M743.9,305.7c0.6,17.6,0.2,49.5-8,79.4c-0.3,1.2-0.3,2.3,0,3.4c-10.4-1.1-20.9-2-31.3-2.9
		c11.7-24.5,14.3-50.7,14.8-59.9C728.4,319.3,737.3,311.7,743.9,305.7"/>
	<path fill="#53453E" d="M445.3,325.7c0.5,9.2,3.1,35.3,14.8,59.8c-10.4,0.8-20.9,1.8-31.3,2.9c0.3-1.1,0.3-2.2,0-3.4
		c-8.2-29.8-8.6-61.7-8-79.4C427.4,311.7,436.3,319.3,445.3,325.7"/>
</g>
<g>
	<g>
		<polyline fill="#534741" points="1418.6,335.5 1224.5,335.5 1224.5,234.5 1731.7,234.5 1731.7,335.5 1538.4,335.5 1538.4,906.9 
			1418.6,906.9 1418.6,335.5 		"/>
		<path fill="#534741" d="M1720.6,402.2h97.5l8.6,89.8h4.3c35.9-65.9,89.8-101.8,142.8-101.8c25.7,0,41.9,3.4,57.3,10.3l-20.5,102.6
			c-17.1-5.1-30.8-8.6-52.2-8.6c-40.2,0-88.1,27.4-118.9,103.5v308.8h-118V402.2"/>
		<path fill="#534741" d="M2353.5,584.4c-0.9-53-24-98.4-91.5-98.4c-50.5,0-97.5,22.2-142,49.6l-42.8-79.5
			c55.6-35.1,126.6-65.9,207-65.9c126.6,0,188.2,77,188.2,218.1v299.4h-96.7l-9.4-55.6h-3.4c-45.3,37.6-96.7,67.6-156.5,67.6
			c-88.1,0-149.7-59.9-149.7-148C2056.7,663.1,2147.4,606.6,2353.5,584.4 M2244.1,826.5c41.1,0,72.7-20.5,110.3-55.6V657.9
			c-136.9,17.1-182.2,53-182.2,103.5C2172.2,807.6,2202.1,826.5,2244.1,826.5z"/>
		<path fill="#534741" d="M2505.8,402.2h120.6l80.4,261.7c13.7,49.6,29.1,100.9,41.9,152.3h4.3c14.5-51.3,29.1-102.6,42.8-152.3
			l80.4-261.7h113.8L2818,906.9h-136.9L2505.8,402.2"/>
		<path fill="#534741" d="M3034.4,247.4c0-40.2,30.8-67.6,72.7-67.6s72.7,27.4,72.7,67.6c0,39.3-30.8,66.7-72.7,66.7
			C3065.2,314.1,3034.4,285.9,3034.4,247.4 M3048.1,402.2h118v504.7h-118V402.2z"/>
		<path fill="#534741" d="M3289.3,773.4c45.3,35.1,88.1,56.5,139.4,56.5c54.7,0,80.4-25.7,80.4-60.7c0-41.9-54.7-60.7-107.8-81.3
			c-66.7-24.8-142-62.4-142-147.1c0-88.1,71-151.4,183.9-151.4c70.1,0,126.6,29.1,167.7,60.7l-54.7,71.9
			c-35.1-25.7-71-42.8-111.2-42.8c-50.5,0-74.4,24-74.4,55.6c0,39.3,50.5,55.6,105.2,75.3c69.3,25.7,144.6,59,144.6,153.1
			c0,86.4-69.3,156.5-196.7,156.5c-69.3,0-142-29.9-191.6-70.1L3289.3,773.4"/>
		<path fill="#534741" d="M4201.1,222.6c82.1,0,148.8,40.2,191.6,85.5l-65.9,74.4c-35.1-34.2-72.7-55.6-124-55.6
			c-110.3,0-189,92.4-189,243.8c0,153.1,72.7,245.5,184.8,245.5c59.9,0,103.5-24.8,142-66.7l65.9,72.7
			c-54.7,62.4-124,97.5-209.6,97.5c-170.2,0-305.4-123.2-305.4-346.4C3890.6,352.6,4028.4,222.6,4201.1,222.6"/>
		<rect x="4478.3" y="234.5" fill="#534741" width="118.9" height="672.3"/>
	</g>
</g>
</svg>
