<?xml version="1.0" encoding="utf-8"?>
<!-- Generator: Adobe Illustrator 17.0.0, SVG Export Plug-In . SVG Version: 6.00 Build 0)  -->
<!DOCTYPE svg PUBLIC "-//W3C//DTD SVG 1.1//EN" "http://www.w3.org/Graphics/SVG/1.1/DTD/svg11.dtd">
<svg version="1.1" id="Capa_1" xmlns="http://www.w3.org/2000/svg" xmlns:xlink="http://www.w3.org/1999/xlink" x="0px" y="0px"
	 width="79px" height="78.999px" viewBox="0 0 79 78.999" enable-background="new 0 0 79 78.999" xml:space="preserve">
<g>
	<g>
		<path fill="#524640" d="M12.211,39.514v-3.762l-2.648-8.361h1.084c0.095,0.338,0.23,0.814,0.409,1.43
			c0.178,0.615,0.361,1.24,0.549,1.874c0.188,0.634,0.37,1.243,0.546,1.828c0.177,0.585,0.321,1.064,0.434,1.44l0.169,0.557
			c0.301-1.104,0.648-2.323,1.043-3.659s0.728-2.493,1-3.47h1.05l-2.564,8.361v3.762H12.211z"/>
	</g>
	<g>
		<path fill="#524640" d="M16.634,35.999V30.92c0-0.428,0.032-0.819,0.096-1.177c0.063-0.356,0.17-0.693,0.32-1.011
			c0.15-0.316,0.34-0.585,0.57-0.803c0.23-0.219,0.523-0.392,0.881-0.518c0.356-0.127,0.766-0.19,1.226-0.19s0.869,0.063,1.226,0.19
			c0.356,0.126,0.65,0.299,0.881,0.518c0.229,0.218,0.42,0.486,0.57,0.803c0.15,0.317,0.257,0.654,0.32,1.011
			c0.063,0.357,0.096,0.749,0.096,1.177v5.079c0,2.47-1.031,3.705-3.093,3.705S16.634,38.469,16.634,35.999z M21.748,36.238v-5.558
			c0-1.733-0.674-2.6-2.021-2.6s-2.021,0.866-2.021,2.6v5.558c0,1.737,0.674,2.606,2.021,2.606S21.748,37.976,21.748,36.238z"/>
	</g>
	<g>
		<path fill="#524640" d="M24.468,36.534v-9.144h1.07v9.39c0,0.695,0.157,1.213,0.472,1.554c0.314,0.34,0.846,0.511,1.592,0.511
			c0.705,0,1.207-0.172,1.508-0.515s0.451-0.859,0.451-1.55v-9.39h1.063v9.144c0,2.113-1.008,3.17-3.022,3.17
			c-0.483,0-0.909-0.057-1.278-0.169c-0.368-0.113-0.669-0.265-0.901-0.455c-0.232-0.189-0.422-0.422-0.567-0.697
			c-0.146-0.274-0.246-0.561-0.303-0.859C24.495,37.226,24.468,36.896,24.468,36.534z"/>
	</g>
	<g>
		<path fill="#524640" d="M32.625,39.514V27.391h3.233c0.408,0,0.768,0.057,1.078,0.169c0.31,0.113,0.56,0.262,0.75,0.447
			s0.344,0.416,0.461,0.69s0.198,0.559,0.243,0.853c0.045,0.293,0.067,0.619,0.067,0.976c0,1.545-0.563,2.524-1.69,2.938
			l1.873,6.051H37.5l-1.769-5.917h-2.035v5.917H32.625z M33.696,32.737h2.155c0.305,0,0.563-0.062,0.774-0.184
			c0.212-0.122,0.37-0.296,0.476-0.521c0.105-0.226,0.18-0.461,0.222-0.705c0.043-0.244,0.063-0.523,0.063-0.838
			c0-0.259-0.013-0.491-0.038-0.697c-0.026-0.207-0.073-0.409-0.142-0.606c-0.067-0.197-0.158-0.362-0.271-0.496
			c-0.113-0.134-0.261-0.241-0.444-0.32c-0.183-0.08-0.396-0.12-0.641-0.12h-2.155V32.737z"/>
	</g>
	<g>
		<path fill="#524640" d="M43.001,39.514V27.391h1.071v11.264h3.388v0.859H43.001z"/>
	</g>
	<g>
		<path fill="#524640" d="M48.213,35.999V30.92c0-0.428,0.032-0.819,0.096-1.177c0.063-0.356,0.17-0.693,0.32-1.011
			c0.15-0.316,0.34-0.585,0.57-0.803c0.23-0.219,0.523-0.392,0.881-0.518c0.356-0.127,0.766-0.19,1.226-0.19s0.869,0.063,1.226,0.19
			c0.356,0.126,0.65,0.299,0.881,0.518c0.229,0.218,0.42,0.486,0.57,0.803c0.15,0.317,0.257,0.654,0.32,1.011
			c0.063,0.357,0.096,0.749,0.096,1.177v5.079c0,2.47-1.031,3.705-3.093,3.705S48.213,38.469,48.213,35.999z M53.327,36.238v-5.558
			c0-1.733-0.674-2.6-2.021-2.6s-2.021,0.866-2.021,2.6v5.558c0,1.737,0.674,2.606,2.021,2.606S53.327,37.976,53.327,36.238z"/>
	</g>
	<g>
		<path fill="#524640" d="M56.004,36.125v-5.142c0-2.508,1.064-3.762,3.191-3.762c0.338,0,0.645,0.037,0.919,0.112
			c0.275,0.075,0.508,0.178,0.697,0.307c0.19,0.129,0.357,0.295,0.5,0.497c0.144,0.201,0.258,0.41,0.342,0.627
			c0.085,0.216,0.153,0.468,0.205,0.757c0.051,0.289,0.086,0.568,0.105,0.838c0.019,0.271,0.028,0.572,0.028,0.905v0.085h-1.071
			v-0.092c0-0.019,0-0.049,0-0.092c0-0.343-0.003-0.602-0.011-0.778c-0.007-0.176-0.024-0.408-0.053-0.697s-0.08-0.51-0.154-0.662
			c-0.075-0.152-0.174-0.312-0.296-0.479c-0.123-0.167-0.287-0.287-0.493-0.359c-0.207-0.073-0.451-0.109-0.733-0.109
			c-0.394,0-0.732,0.066-1.014,0.2c-0.282,0.135-0.5,0.321-0.655,0.561s-0.267,0.498-0.335,0.774
			c-0.067,0.277-0.102,0.583-0.102,0.916v6.059c0,0.31,0.028,0.588,0.084,0.834c0.057,0.247,0.154,0.482,0.293,0.708
			c0.138,0.226,0.346,0.4,0.623,0.525c0.277,0.124,0.617,0.187,1.021,0.187c0.371,0,0.688-0.066,0.951-0.197
			c0.263-0.132,0.46-0.312,0.592-0.539c0.131-0.228,0.224-0.464,0.278-0.708c0.054-0.244,0.08-0.515,0.08-0.81V34.54h-1.485v-0.81
			h2.557v5.783h-0.472L61.28,38.33c-0.16,0.418-0.442,0.752-0.849,1c-0.406,0.249-0.856,0.374-1.35,0.374
			c-0.323,0-0.621-0.029-0.891-0.088c-0.271-0.06-0.504-0.136-0.701-0.229s-0.374-0.215-0.531-0.362
			c-0.157-0.148-0.287-0.295-0.388-0.44s-0.189-0.314-0.265-0.508c-0.075-0.192-0.131-0.366-0.169-0.521
			c-0.037-0.155-0.066-0.331-0.088-0.528c-0.021-0.197-0.034-0.357-0.038-0.479C56.007,36.426,56.004,36.285,56.004,36.125z"/>
	</g>
	<g>
		<path fill="#524640" d="M63.668,35.999V30.92c0-0.428,0.032-0.819,0.096-1.177c0.063-0.356,0.17-0.693,0.32-1.011
			c0.15-0.316,0.34-0.585,0.57-0.803c0.23-0.219,0.523-0.392,0.881-0.518c0.356-0.127,0.766-0.19,1.226-0.19s0.869,0.063,1.226,0.19
			c0.356,0.126,0.65,0.299,0.881,0.518c0.229,0.218,0.42,0.486,0.57,0.803c0.15,0.317,0.257,0.654,0.32,1.011
			c0.063,0.357,0.096,0.749,0.096,1.177v5.079c0,2.47-1.031,3.705-3.093,3.705S63.668,38.469,63.668,35.999z M68.782,36.238v-5.558
			c0-1.733-0.674-2.6-2.021-2.6s-2.021,0.866-2.021,2.6v5.558c0,1.737,0.674,2.606,2.021,2.606S68.782,37.976,68.782,36.238z"/>
	</g>
	<g>
		<path fill="#524640" d="M29.25,56.825V44.702h1.071v5.487h3.733v-5.487h1.07v12.123h-1.07v-5.889h-3.733v5.889H29.25z"/>
	</g>
	<g>
		<path fill="#524640" d="M37.182,56.825V44.702h4.227v0.859h-3.155v4.593h2.254v0.811h-2.254v5.001h3.155v0.859H37.182z"/>
	</g>
	<g>
		<path fill="#524640" d="M42.782,56.825V44.702h3.233c0.408,0,0.768,0.057,1.078,0.169c0.31,0.113,0.56,0.262,0.75,0.447
			s0.344,0.416,0.461,0.69s0.198,0.559,0.243,0.853c0.045,0.293,0.067,0.619,0.067,0.976c0,1.545-0.563,2.524-1.69,2.938
			l1.873,6.051h-1.141l-1.769-5.917h-2.035v5.917H42.782z M43.854,50.049h2.155c0.305,0,0.563-0.062,0.774-0.184
			c0.212-0.122,0.37-0.296,0.476-0.521c0.105-0.226,0.18-0.461,0.222-0.705c0.043-0.244,0.063-0.523,0.063-0.838
			c0-0.259-0.013-0.491-0.038-0.697c-0.026-0.207-0.073-0.409-0.142-0.606c-0.067-0.197-0.158-0.362-0.271-0.496
			c-0.113-0.134-0.261-0.241-0.444-0.32c-0.183-0.08-0.396-0.12-0.641-0.12h-2.155V50.049z"/>
	</g>
	<g>
		<path fill="#524640" d="M50.298,56.825V44.702h4.227v0.859h-3.155v4.593h2.254v0.811h-2.254v5.001h3.155v0.859H50.298z"/>
	</g>
</g>
<g>
	<path fill="#524640" d="M39.511,78.999c-2.076,0-4.135-0.159-6.146-0.473l0.154-0.988C35.485,77.845,37.498,78,39.5,78l0.033,0.818
		l-0.005,0.181C39.522,78.999,39.517,78.999,39.511,78.999z M45.715,78.513l-0.156-0.988c1.985-0.313,3.96-0.787,5.871-1.409
		l0.309,0.951C49.778,77.704,47.752,78.19,45.715,78.513z M27.339,77.092c-1.963-0.634-3.891-1.431-5.729-2.367l0.453-0.891
		c1.792,0.912,3.671,1.688,5.583,2.307L27.339,77.092z M57.46,74.69L57.005,73.8c1.788-0.915,3.518-1.979,5.143-3.162l0.588,0.809
		C61.069,72.66,59.295,73.752,57.46,74.69z M16.324,71.489c-1.67-1.212-3.256-2.564-4.715-4.019l0.707-0.709
		c1.421,1.418,2.968,2.736,4.596,3.919L16.324,71.489z M67.442,67.42l-0.707-0.707c1.42-1.421,2.739-2.966,3.922-4.592l0.809,0.588
		C70.253,64.377,68.899,65.962,67.442,67.42z M7.577,62.768c-1.217-1.667-2.31-3.441-3.249-5.272l0.891-0.457
		c0.915,1.786,1.98,3.515,3.167,5.14L7.577,62.768z M74.708,57.428l-0.891-0.455c0.914-1.794,1.692-3.672,2.312-5.581L77.08,51.7
		C76.444,53.659,75.646,55.586,74.708,57.428z M1.945,51.777c-0.64-1.958-1.129-3.984-1.453-6.023l0.988-0.156
		c0.315,1.986,0.792,3.961,1.416,5.869L1.945,51.777z M78.521,45.675l-0.988-0.154C77.843,43.541,78,41.516,78,39.5l-0.001-0.158h1
		L79,39.491C79,41.567,78.839,43.645,78.521,45.675z M0,39.579V39.5c0-2.039,0.157-4.09,0.468-6.096l0.988,0.152
		C1.153,35.513,1,37.512,1,39.5L0,39.579z M77.509,33.325c-0.321-1.988-0.802-3.962-1.429-5.866l0.949-0.312
		c0.644,1.953,1.137,3.979,1.466,6.019L77.509,33.325z M2.847,27.683l-0.951-0.307c0.633-1.964,1.427-3.892,2.36-5.731l0.893,0.453
		C4.237,23.89,3.464,25.77,2.847,27.683z M73.746,21.892c-0.921-1.785-1.989-3.512-3.178-5.133l0.807-0.592
		c1.219,1.664,2.315,3.436,3.26,5.266L73.746,21.892z M8.297,16.943l-0.811-0.586c1.208-1.669,2.559-3.256,4.015-4.719l0.709,0.705
		C10.791,13.77,9.474,15.317,8.297,16.943z M66.63,12.183c-1.424-1.415-2.973-2.73-4.604-3.908l0.586-0.811
		c1.673,1.209,3.262,2.558,4.723,4.01L66.63,12.183z M16.789,8.408l-0.59-0.807c1.669-1.222,3.441-2.316,5.269-3.254l0.457,0.889
		C20.144,6.151,18.416,7.218,16.789,8.408z M56.868,5.131c-1.794-0.908-3.674-1.681-5.589-2.296l0.307-0.951
		c1.964,0.63,3.894,1.423,5.733,2.354L56.868,5.131z M27.496,2.908l-0.312-0.949c1.956-0.642,3.981-1.133,6.021-1.461l0.158,0.988
		C31.375,1.805,29.401,2.283,27.496,2.908z M45.403,1.449C43.465,1.151,41.479,1,39.5,1h-0.119V0H39.5
		c2.03,0,4.067,0.155,6.056,0.461L45.403,1.449z"/>
</g>
</svg>
